<?xml version="1.0" encoding="UTF-8" standalone="no"?>
<svg
   xmlns:dc="http://purl.org/dc/elements/1.1/"
   xmlns:cc="http://creativecommons.org/ns#"
   xmlns:rdf="http://www.w3.org/1999/02/22-rdf-syntax-ns#"
   xmlns:svg="http://www.w3.org/2000/svg"
   xmlns="http://www.w3.org/2000/svg"
   xmlns:sodipodi="http://sodipodi.sourceforge.net/DTD/sodipodi-0.dtd"
   xmlns:inkscape="http://www.inkscape.org/namespaces/inkscape"
   viewBox="0 0 50 50"
   id="svg2"
   version="1.1"
   inkscape:version="0.91 r13725"
   sodipodi:docname="crowdfunding.svg">
  <metadata
     id="metadata10">
    <rdf:RDF>
      <cc:Work
         rdf:about="">
        <dc:format>image/svg+xml</dc:format>
        <dc:type
           rdf:resource="http://purl.org/dc/dcmitype/StillImage" />
      </cc:Work>
    </rdf:RDF>
  </metadata>
  <defs
     id="defs8" />
  <sodipodi:namedview
     pagecolor="#ffffff"
     bordercolor="#666666"
     borderopacity="1"
     objecttolerance="10"
     gridtolerance="10"
     guidetolerance="10"
     inkscape:pageopacity="0"
     inkscape:pageshadow="2"
     inkscape:window-width="1920"
     inkscape:window-height="962"
     id="namedview6"
     showgrid="false"
     inkscape:zoom="4.72"
     inkscape:cx="25"
     inkscape:cy="25"
     inkscape:window-x="0"
     inkscape:window-y="30"
     inkscape:window-maximized="1"
     inkscape:current-layer="svg2" />
  <path
     style="text-indent:0;text-align:start;line-height:normal;text-transform:none;block-progression:tb;-inkscape-font-specification:Bitstream Vera Sans;fill:#ffffff;fill-opacity:1"
     d="M 18 2 C 15.250421 2 13 4.2504209 13 7 C 13 9.7495791 15.250421 12 18 12 C 18.402126 12 18.780955 11.934541 19.15625 11.84375 L 20 13.625 C 16.418614 15.703884 14 19.570261 14 24 C 14 25.150881 14.164708 26.258004 14.46875 27.3125 L 11.21875 28.3125 C 10.326829 26.929014 8.7589875 26 7 26 C 4.2504209 26 2 28.250421 2 31 C 2 33.749579 4.2504209 36 7 36 C 9.7495791 36 12 33.749579 12 31 C 12 30.721076 11.981988 30.454322 11.9375 30.1875 L 15.1875 29.1875 C 16.717658 32.35781 19.611444 34.751425 23.09375 35.625 L 22.78125 38 C 20.134277 38.117988 18 40.325312 18 43 C 18 45.749579 20.250421 48 23 48 C 25.749579 48 28 45.749579 28 43 C 28 40.869076 26.638133 39.059875 24.75 38.34375 L 25.0625 35.9375 C 25.374644 35.961968 25.681693 36 26 36 C 29.34779 36 32.352237 34.594501 34.53125 32.375 L 38.59375 35.6875 C 38.224442 36.383788 38 37.161007 38 38 C 38 40.749579 40.250421 43 43 43 C 45.749579 43 48 40.749579 48 38 C 48 35.250421 45.749579 33 43 33 C 41.797059 33 40.708956 33.441412 39.84375 34.15625 L 35.84375 30.84375 C 37.193841 28.902821 38 26.537634 38 24 C 38 21.049804 36.929506 18.342189 35.15625 16.25 L 38.25 13.1875 C 39.041269 13.713548 39.984142 14 41 14 C 43.749579 14 46 11.749579 46 9 C 46 6.2504209 43.749579 4 41 4 C 38.250421 4 36 6.2504209 36 9 C 36 10.015858 36.286452 10.958731 36.8125 11.75 L 33.75 14.84375 C 31.657811 13.070494 28.950196 12 26 12 C 24.524962 12 23.119093 12.260682 21.8125 12.75 L 20.96875 11 C 22.188898 10.085957 23 8.6325626 23 7 C 23 4.2504209 20.749579 2 18 2 z M 18 4 C 19.668699 4 21 5.3313011 21 7 C 21 8.6686989 19.668699 10 18 10 C 16.331301 10 15 8.6686989 15 7 C 15 5.3313011 16.331301 4 18 4 z M 41 6 C 42.668699 6 44 7.3313011 44 9 C 44 10.668699 42.668699 12 41 12 C 39.331301 12 38 10.668699 38 9 C 38 7.3313011 39.331301 6 41 6 z M 26 14 C 31.534692 14 36 18.465308 36 24 C 36 29.534692 31.534692 34 26 34 C 20.465308 34 16 29.534692 16 24 C 16 18.465308 20.465308 14 26 14 z M 25.125 17 L 25.125 18.75 C 22.446 19.15 22.34375 21.56075 22.34375 21.84375 C 22.34375 24.31975 24.304 24.765 25.875 25.125 C 27.285 25.449 28.09375 25.68425 28.09375 26.65625 C 28.09375 27.23925 27.82 28.21875 26 28.21875 C 25.96 28.21875 24.99925 28.20175 24.40625 27.59375 C 24.05625 27.23475 23.88925 26.7255 23.90625 26.0625 L 23.9375 25.59375 L 22.09375 25.59375 L 22.09375 26.0625 C 22.15275 28.1985 23.13075 29.403 25.09375 29.75 L 25.09375 31 L 26.875 31 L 26.875 29.78125 C 29.732 29.35025 29.90625 27.11625 29.90625 26.65625 C 29.90725 24.26525 27.945 23.77625 26.375 23.40625 C 24.965 23.07425 24.15625 22.8525 24.15625 21.9375 C 24.15625 20.8425 24.76225 20.34375 26.03125 20.34375 C 27.50125 20.34375 27.8005 21.32725 27.8125 22.15625 L 27.84375 22.625 L 29.59375 22.625 L 29.625 22.1875 C 29.68 21.3635 29.36325 20.43525 28.78125 19.78125 C 28.28925 19.23025 27.624 18.876 26.875 18.75 L 26.875 17 L 25.125 17 z M 7 28 C 8.6686989 28 10 29.331301 10 31 C 10 32.668699 8.6686989 34 7 34 C 5.3313011 34 4 32.668699 4 31 C 4 29.331301 5.3313011 28 7 28 z M 43 35 C 44.668699 35 46 36.331301 46 38 C 46 39.668699 44.668699 41 43 41 C 41.331301 41 40 39.668699 40 38 C 40 36.331301 41.331301 35 43 35 z M 23 40 C 24.668699 40 26 41.331301 26 43 C 26 44.668699 24.668699 46 23 46 C 21.331301 46 20 44.668699 20 43 C 20 41.331301 21.331301 40 23 40 z"
     id="path4" />
</svg>
