<?xml version="1.0" encoding="UTF-8" standalone="no"?>
<svg
   xmlns:dc="http://purl.org/dc/elements/1.1/"
   xmlns:cc="http://creativecommons.org/ns#"
   xmlns:rdf="http://www.w3.org/1999/02/22-rdf-syntax-ns#"
   xmlns:svg="http://www.w3.org/2000/svg"
   xmlns="http://www.w3.org/2000/svg"
   xmlns:sodipodi="http://sodipodi.sourceforge.net/DTD/sodipodi-0.dtd"
   xmlns:inkscape="http://www.inkscape.org/namespaces/inkscape"
   version="1.1"
   x="0px"
   y="0px"
   viewBox="0 0 96.970001 100.002"
   enable-background="new 0 0 100 100"
   xml:space="preserve"
   id="svg8"
   sodipodi:docname="decentralized.svg"
   width="96.970001"
   height="100.002"
   inkscape:version="0.92.2 (30a58d1, 2017-08-07)"><metadata
     id="metadata14"><rdf:RDF><cc:Work
         rdf:about=""><dc:format>image/svg+xml</dc:format><dc:type
           rdf:resource="http://purl.org/dc/dcmitype/StillImage" /><dc:title /></cc:Work></rdf:RDF></metadata><defs
     id="defs12" /><sodipodi:namedview
     pagecolor="#ffffff"
     bordercolor="#666666"
     borderopacity="1"
     objecttolerance="10"
     gridtolerance="10"
     guidetolerance="10"
     inkscape:pageopacity="0"
     inkscape:pageshadow="2"
     inkscape:window-width="1920"
     inkscape:window-height="996"
     id="namedview10"
     showgrid="false"
     fit-margin-top="0"
     fit-margin-left="0"
     fit-margin-right="0"
     fit-margin-bottom="0"
     inkscape:zoom="5.3400704"
     inkscape:cx="47.127366"
     inkscape:cy="34.847693"
     inkscape:window-x="0"
     inkscape:window-y="0"
     inkscape:window-maximized="1"
     inkscape:current-layer="svg8" /><path
     d="m 93.273,62.278 -4.411,-26.07 c 1.115,-0.836 1.847,-2.156 1.847,-3.657 0,-2.531 -2.052,-4.583 -4.584,-4.583 -0.617,0 -1.205,0.126 -1.742,0.348 L 71.105,14.627 c 1.107,-0.986 1.819,-2.407 1.819,-4.007 0,-2.971 -2.405,-5.379 -5.379,-5.379 -1.854,0 -3.487,0.939 -4.457,2.368 L 41.86,3.086 C 41.501,1.325 39.944,0 38.076,0 c -2.134,0 -3.862,1.729 -3.862,3.862 0,0.676 0.19,1.304 0.496,1.857 L 17.896,23.122 c -0.239,-0.036 -0.479,-0.073 -0.729,-0.073 -2.669,0 -4.833,2.164 -4.833,4.834 0,1.788 0.982,3.332 2.426,4.168 L 6.01,54.535 C 5.787,54.504 5.565,54.467 5.333,54.467 c -2.669,0 -4.833,2.164 -4.833,4.834 0,2.016 1.235,3.74 2.988,4.465 L 3.162,87.197 C 1.32,87.881 0,89.638 0,91.718 c 0,2.67 2.164,4.834 4.833,4.834 2.442,0 4.441,-1.817 4.766,-4.172 l 40.078,-2.649 c 0.705,1.5 2.218,2.545 3.985,2.545 1.021,0 1.947,-0.359 2.695,-0.941 l 19.896,6.713 c 0.665,1.162 1.903,1.954 3.338,1.954 2.133,0 3.862,-1.729 3.862,-3.862 0,-0.268 -0.026,-0.525 -0.079,-0.777 L 93.22,70.97 c 2.121,-0.322 3.75,-2.138 3.75,-4.35 0.003,-2.193 -1.601,-3.999 -3.697,-4.342 z M 50.657,39.514 66.333,59.717 c -0.463,0.561 -0.812,1.205 -1.024,1.918 L 35.057,59.563 C 34.875,59.118 34.618,58.716 34.319,58.349 L 45.687,40.065 c 0.597,0.202 1.233,0.317 1.898,0.317 1.126,0 2.177,-0.321 3.072,-0.868 z m 1.984,-1.987 c 0.324,-0.537 0.558,-1.133 0.7,-1.763 l 28.458,-1.763 c 0.188,0.562 0.479,1.07 0.854,1.511 L 71.047,57.746 c -0.16,-0.014 -0.314,-0.049 -0.479,-0.049 -0.711,0 -1.385,0.146 -2.008,0.391 z M 64.459,15.014 c 0.875,0.616 1.938,0.985 3.088,0.985 0.373,0 0.739,-0.039 1.092,-0.111 l 13.624,14.215 c -0.27,0.425 -0.471,0.896 -0.589,1.399 L 53.362,33.264 C 53.192,32.45 52.867,31.692 52.399,31.037 Z M 41.395,5.808 62.207,10.241 c -0.01,0.128 -0.039,0.25 -0.039,0.379 0,0.813 0.193,1.577 0.518,2.268 L 50.354,29.239 c -0.681,-0.362 -1.44,-0.594 -2.249,-0.664 -0.27,-0.042 -0.545,-0.065 -0.827,-0.065 -0.183,0 -0.354,0.036 -0.531,0.054 L 40.208,7.079 c 0.49,-0.325 0.889,-0.764 1.187,-1.271 z m -4.431,1.733 c 0.173,0.052 0.349,0.096 0.531,0.124 l 6.653,21.823 c -1.042,0.72 -1.799,1.796 -2.151,3.043 -0.03,0.086 -0.06,0.171 -0.086,0.259 v 0 L 21.92,27.095 C 21.736,25.978 21.171,25 20.361,24.281 Z m -15.381,22.293 20.178,5.65 c 0.224,1.291 0.865,2.436 1.782,3.295 L 32.291,56.876 c -0.532,-0.202 -1.104,-0.326 -1.708,-0.326 -0.123,0 -0.238,0.026 -0.358,0.036 l -10.108,-24.9 c 0.629,-0.489 1.14,-1.116 1.466,-1.852 z m -4.399,2.88 c 0.218,0 0.426,-0.035 0.636,-0.064 l 10.043,24.74 c -0.918,0.627 -1.589,1.569 -1.904,2.663 L 10.078,58.416 C 9.86,57.24 9.212,56.228 8.311,55.519 Z M 7.293,87.576 C 6.875,87.328 6.422,87.136 5.935,87.021 L 6.236,64.042 c 1.701,-0.322 3.07,-1.536 3.636,-3.137 l 16.04,1.652 c 0.144,0.573 0.38,1.108 0.709,1.58 z M 49.338,86.99 9.182,89.642 C 9.14,89.553 9.09,89.469 9.042,89.383 L 28.536,65.745 c 0.624,0.294 1.312,0.471 2.047,0.471 0.438,0 0.853,-0.077 1.256,-0.186 L 49.95,85.492 c -0.289,0.452 -0.504,0.954 -0.612,1.498 z m 6.122,-3.153 c -0.55,-0.246 -1.155,-0.39 -1.797,-0.39 -0.558,0 -1.083,0.112 -1.573,0.302 L 34.199,64.561 c 0.547,-0.621 0.95,-1.371 1.12,-2.215 l 29.865,2.047 c 0.142,0.646 0.397,1.248 0.743,1.787 z m 20.455,11.182 -17.99,-6.071 c 0.089,-0.35 0.15,-0.709 0.15,-1.086 10e-4,-0.787 -0.222,-1.516 -0.583,-2.154 L 67.96,68.049 c 0.78,0.422 1.658,0.684 2.606,0.684 0.065,0 0.129,-0.018 0.191,-0.02 l 6.979,24.056 c -0.87,0.481 -1.527,1.281 -1.821,2.25 z m 5.532,-2.25 C 81.142,92.602 80.82,92.466 80.472,92.385 L 73.412,67.92 c 1.251,-0.76 2.177,-1.988 2.519,-3.455 L 88.5,68.352 c 0.389,0.911 1.085,1.647 1.947,2.122 z M 88.275,65.601 75.85,61.707 C 75.496,60.467 74.739,59.4 73.704,58.685 L 84.999,36.978 c -1.457,-0.511 0.734,0.156 1.127,0.156 0.035,0 0.068,-0.01 0.104,-0.01 l 4.317,25.589 c -1.128,0.583 -1.972,1.624 -2.272,2.888 z"
     id="path2"
     inkscape:connector-curvature="0"
     style="fill:#7a1ea9;fill-opacity:0.960199" /></svg>