<?xml version="1.0" encoding="UTF-8" standalone="no"?>
<svg
   xmlns:dc="http://purl.org/dc/elements/1.1/"
   xmlns:cc="http://creativecommons.org/ns#"
   xmlns:rdf="http://www.w3.org/1999/02/22-rdf-syntax-ns#"
   xmlns:svg="http://www.w3.org/2000/svg"
   xmlns="http://www.w3.org/2000/svg"
   xmlns:sodipodi="http://sodipodi.sourceforge.net/DTD/sodipodi-0.dtd"
   xmlns:inkscape="http://www.inkscape.org/namespaces/inkscape"
   version="1.1"
   x="0px"
   y="0px"
   viewBox="0 0 103.17099 48.001161"
   id="svg4195"
   sodipodi:docname="dna.svg"
   inkscape:version="0.92.2 (30a58d1, 2017-08-07)"
   width="103.17099"
   height="48.00116">
  <metadata
     id="metadata4201">
    <rdf:RDF>
      <cc:Work
         rdf:about="">
        <dc:format>image/svg+xml</dc:format>
        <dc:type
           rdf:resource="http://purl.org/dc/dcmitype/StillImage" />
        <dc:title></dc:title>
      </cc:Work>
    </rdf:RDF>
  </metadata>
  <defs
     id="defs4199" />
  <sodipodi:namedview
     pagecolor="#ffffff"
     bordercolor="#666666"
     borderopacity="1"
     objecttolerance="10"
     gridtolerance="10"
     guidetolerance="10"
     inkscape:pageopacity="0"
     inkscape:pageshadow="2"
     inkscape:window-width="1920"
     inkscape:window-height="996"
     id="namedview4197"
     showgrid="false"
     inkscape:pagecheckerboard="false"
     showborder="true"
     inkscape:showpageshadow="true"
     inkscape:zoom="11.136665"
     inkscape:cx="46.731046"
     inkscape:cy="40.385916"
     inkscape:window-x="0"
     inkscape:window-y="0"
     inkscape:window-maximized="1"
     inkscape:current-layer="svg4195"
     fit-margin-top="0"
     fit-margin-left="0"
     fit-margin-right="0"
     fit-margin-bottom="0" />
  <g
     transform="matrix(0,1.201049,-1.201049,0,922.00312,-427.09246)"
     id="g4189"
     style="fill:#8b31b9;fill-opacity:1">
    <path
       style="fill:#8b31b9;stroke:#000000;stroke-width:1.53000009;stroke-linecap:butt;stroke-linejoin:miter;stroke-miterlimit:4;stroke-dasharray:none;stroke-opacity:1;fill-opacity:1"
       d="m 366.62886,720.2858 20.32947,-0.20485"
       stroke-miterlimit="4"
       id="path4047"
       inkscape:connector-curvature="0" />
    <path
       style="fill:#8b31b9;stroke:#000000;stroke-width:1.53000009;stroke-linecap:butt;stroke-linejoin:miter;stroke-miterlimit:4;stroke-dasharray:none;stroke-opacity:1;fill-opacity:1"
       d="m 366.27036,725.37586 21.91387,-0.20485"
       stroke-miterlimit="4"
       id="path4049"
       inkscape:connector-curvature="0" />
    <path
       style="fill:#8b31b9;stroke:#000000;stroke-width:1.53000009;stroke-linecap:butt;stroke-linejoin:miter;stroke-miterlimit:4;stroke-dasharray:none;stroke-opacity:1;fill-opacity:1"
       d="m 366.19618,730.66024 21.91387,-0.20485"
       stroke-miterlimit="4"
       id="path4051"
       inkscape:connector-curvature="0" />
    <path
       style="fill:#8b31b9;stroke:#000000;stroke-width:1.53000009;stroke-linecap:butt;stroke-linejoin:miter;stroke-miterlimit:4;stroke-dasharray:none;stroke-opacity:1;fill-opacity:1"
       d="m 368.13333,735.84746 16.63804,-0.20485"
       stroke-miterlimit="4"
       id="path4053"
       inkscape:connector-curvature="0" />
    <path
       style="fill:#8b31b9;stroke:#000000;stroke-width:1.52999997;stroke-linecap:butt;stroke-linejoin:miter;stroke-miterlimit:4;stroke-dasharray:none;stroke-opacity:1;fill-opacity:1"
       d="m 366.07912,757.97115 22.46109,0.30201"
       stroke-miterlimit="4"
       id="path4055"
       inkscape:connector-curvature="0" />
    <path
       style="fill:#8b31b9;stroke:#000000;stroke-width:1.52999997;stroke-linecap:butt;stroke-linejoin:miter;stroke-miterlimit:4;stroke-dasharray:none;stroke-opacity:1;fill-opacity:1"
       d="m 364.6964,763.39146 23.96939,0.10768"
       stroke-miterlimit="4"
       id="path4057"
       inkscape:connector-curvature="0" />
    <path
       style="fill:#8b31b9;stroke:#000000;stroke-width:1.52999997;stroke-linecap:butt;stroke-linejoin:miter;stroke-miterlimit:4;stroke-dasharray:none;stroke-opacity:1;fill-opacity:1"
       d="m 368.82201,752.55084 17.12274,0.10769"
       stroke-miterlimit="4"
       id="path4059"
       inkscape:connector-curvature="0" />
    <rect
       style="fill:#8b31b9;fill-opacity:1;stroke:none"
       width="1.9237608"
       height="2.0986495"
       x="402.56342"
       y="692.81482"
       transform="rotate(2.815372)"
       id="rect4061" />
    <rect
       style="fill:#8b31b9;fill-opacity:1;stroke:none"
       width="1.9237608"
       height="2.0986495"
       x="403.27295"
       y="692.4809"
       transform="rotate(2.815372)"
       id="rect4063" />
    <rect
       style="fill:#8b31b9;fill-opacity:1;stroke:none"
       width="1.9237608"
       height="2.0986495"
       x="403.3165"
       y="693.89435"
       transform="rotate(2.815372)"
       id="rect4065" />
    <rect
       style="fill:#8b31b9;fill-opacity:1;stroke:none"
       width="1.9237608"
       height="2.0986495"
       x="403.16064"
       y="691.53815"
       transform="rotate(2.815372)"
       id="rect4067" />
    <rect
       style="fill:#8b31b9;fill-opacity:1;stroke:none"
       width="1.9237608"
       height="2.0986495"
       x="404.51804"
       y="693.69647"
       transform="rotate(2.815372)"
       id="rect4069" />
    <rect
       style="fill:#8b31b9;fill-opacity:1;stroke:none"
       width="1.9237608"
       height="2.0986495"
       x="399.53836"
       y="690.35187"
       transform="rotate(2.815372)"
       id="rect4071" />
    <rect
       style="fill:#8b31b9;fill-opacity:1;stroke:none"
       width="1.9237608"
       height="2.0986495"
       x="404.69559"
       y="690.18579"
       transform="rotate(2.815372)"
       id="rect4073" />
    <rect
       style="fill:#8b31b9;fill-opacity:1;stroke:none"
       width="1.9237608"
       height="2.0986495"
       x="-350.14844"
       y="729.93408"
       transform="matrix(-0.998793,0.04911774,0.04911774,0.998793,0,0)"
       id="rect4075" />
    <rect
       style="fill:#8b31b9;fill-opacity:1;stroke:none"
       width="1.9237608"
       height="2.0986495"
       x="-347.44489"
       y="728.68829"
       transform="matrix(-0.998793,0.04911774,0.04911774,0.998793,0,0)"
       id="rect4077" />
    <rect
       style="fill:#8b31b9;fill-opacity:1;stroke:none"
       width="1.9237608"
       height="2.0986495"
       x="-350.37723"
       y="727.96167"
       transform="matrix(-0.998793,0.04911774,0.04911774,0.998793,0,0)"
       id="rect4079" />
    <rect
       style="fill:#8b31b9;fill-opacity:1;stroke:none"
       width="1.9237608"
       height="2.0986495"
       x="-348.04263"
       y="727.99121"
       transform="matrix(-0.998793,0.04911774,0.04911774,0.998793,0,0)"
       id="rect4081" />
    <rect
       style="fill:#8b31b9;fill-opacity:1;stroke:none"
       width="2.2553847"
       height="2.0995996"
       x="-342.32147"
       y="728.00568"
       transform="matrix(-0.99912199,0.04189564,0.05757771,0.99834103,0,0)"
       id="rect4083" />
    <rect
       style="fill:#8b31b9;fill-opacity:1;stroke:none"
       width="1.9237608"
       height="2.0986495"
       x="-344.87698"
       y="728.27325"
       transform="matrix(-0.998793,0.04911774,0.04911774,0.998793,0,0)"
       id="rect4085" />
    <rect
       style="fill:#8b31b9;fill-opacity:1;stroke:none"
       width="1.9237608"
       height="2.0986495"
       x="-584.87225"
       y="-554.28479"
       transform="rotate(-161.94651)"
       id="rect4087" />
    <rect
       style="fill:#8b31b9;fill-opacity:1;stroke:none"
       width="1.9237608"
       height="2.0986495"
       x="-584.87628"
       y="-550.50519"
       transform="rotate(-161.94651)"
       id="rect4089" />
    <rect
       style="fill:#8b31b9;fill-opacity:1;stroke:none"
       width="1.9237608"
       height="2.0986495"
       x="-587.87964"
       y="-550.00732"
       transform="rotate(-161.94651)"
       id="rect4091" />
    <rect
       style="fill:#8b31b9;fill-opacity:1;stroke:none"
       width="1.9237608"
       height="2.0986495"
       x="-587.08643"
       y="-551.76093"
       transform="rotate(-161.94651)"
       id="rect4093" />
    <rect
       style="fill:#8b31b9;fill-opacity:1;stroke:none"
       width="1.9237608"
       height="2.0986495"
       x="-586.67462"
       y="-554.81842"
       transform="rotate(-161.94651)"
       id="rect4095" />
    <rect
       style="fill:#8b31b9;fill-opacity:1;stroke:none"
       width="1.9237608"
       height="2.0986495"
       x="-586.40491"
       y="-559.27228"
       transform="rotate(-161.94651)"
       id="rect4097" />
    <rect
       style="fill:#8b31b9;fill-opacity:1;stroke:none"
       width="1.9237608"
       height="2.0986495"
       x="-584.24634"
       y="-551.93701"
       transform="rotate(-161.94651)"
       id="rect4099" />
    <rect
       style="fill:#8b31b9;fill-opacity:1;stroke:none"
       width="1.9237608"
       height="2.0986495"
       x="-583.08368"
       y="-553.21985"
       transform="rotate(-161.94651)"
       id="rect4101" />
    <rect
       style="fill:#8b31b9;fill-opacity:1;stroke:none"
       width="1.9237608"
       height="2.0986495"
       x="-582.74011"
       y="-556.91382"
       transform="rotate(-161.94651)"
       id="rect4103" />
    <rect
       style="fill:#8b31b9;fill-opacity:1;stroke:none"
       width="1.9237608"
       height="2.0986495"
       x="-581.36328"
       y="-552.79132"
       transform="rotate(-161.94651)"
       id="rect4105" />
    <rect
       style="fill:#8b31b9;fill-opacity:1;stroke:none"
       width="1.9237608"
       height="2.0986495"
       x="-580.74127"
       y="-555.43622"
       transform="rotate(-161.94651)"
       id="rect4107" />
    <rect
       style="fill:#8b31b9;fill-opacity:1;stroke:none"
       width="1.9237608"
       height="2.0986495"
       x="-580.16138"
       y="-557.64575"
       transform="rotate(-161.94651)"
       id="rect4109" />
    <rect
       style="fill:#8b31b9;fill-opacity:1;stroke:none"
       width="1.9237608"
       height="2.0986495"
       x="130.09801"
       y="-788.89081"
       transform="matrix(0.95076759,-0.30990481,-0.30990481,-0.95076759,0,0)"
       id="rect4111" />
    <rect
       style="fill:#8b31b9;fill-opacity:1;stroke:none"
       width="1.9237608"
       height="2.0986495"
       x="131.38791"
       y="-784.24542"
       transform="matrix(0.95076759,-0.30990481,-0.30990481,-0.95076759,0,0)"
       id="rect4113" />
    <rect
       style="fill:#8b31b9;fill-opacity:1;stroke:none"
       width="1.9237608"
       height="2.0986495"
       x="126.67316"
       y="-783.1897"
       transform="matrix(0.95076759,-0.30990481,-0.30990481,-0.95076759,0,0)"
       id="rect4115" />
    <rect
       style="fill:#8b31b9;fill-opacity:1;stroke:none"
       width="1.9237608"
       height="2.0986495"
       x="128.436"
       y="-786.28943"
       transform="matrix(0.95076759,-0.30990481,-0.30990481,-0.95076759,0,0)"
       id="rect4117" />
    <rect
       style="fill:#8b31b9;fill-opacity:1;stroke:none"
       width="1.9237608"
       height="2.0986495"
       x="133.23717"
       y="-788.62103"
       transform="matrix(0.95076759,-0.30990481,-0.30990481,-0.95076759,0,0)"
       id="rect4119" />
    <rect
       style="fill:#8b31b9;fill-opacity:1;stroke:none"
       width="1.9237608"
       height="2.0986495"
       x="130.30649"
       y="-785.11938"
       transform="matrix(0.95076759,-0.30990481,-0.30990481,-0.95076759,0,0)"
       id="rect4121" />
    <rect
       style="fill:#8b31b9;fill-opacity:1;stroke:none"
       width="1.9237608"
       height="2.0986495"
       x="133.73833"
       y="-785.2486"
       transform="matrix(0.95076759,-0.30990481,-0.30990481,-0.95076759,0,0)"
       id="rect4123" />
    <rect
       style="fill:#8b31b9;fill-opacity:1;stroke:none"
       width="1.9237608"
       height="2.0986495"
       x="131.2193"
       y="-793.04541"
       transform="matrix(0.95076759,-0.30990481,-0.30990481,-0.95076759,0,0)"
       id="rect4125" />
    <rect
       style="fill:#8b31b9;fill-opacity:1;stroke:none"
       width="1.9237608"
       height="2.0986495"
       x="133.26666"
       y="-790.9809"
       transform="matrix(0.95076759,-0.30990481,-0.30990481,-0.95076759,0,0)"
       id="rect4127" />
    <rect
       style="fill:#8b31b9;fill-opacity:1;stroke:none"
       width="1.9237608"
       height="2.0986495"
       x="136.18063"
       y="-788.28711"
       transform="matrix(0.95076759,-0.30990481,-0.30990481,-0.95076759,0,0)"
       id="rect4129" />
    <rect
       style="fill:#8b31b9;fill-opacity:1;stroke:none"
       width="1.9237608"
       height="2.0986495"
       x="136.70265"
       y="-790.10992"
       transform="matrix(0.95076759,-0.30990481,-0.30990481,-0.95076759,0,0)"
       id="rect4131" />
    <rect
       style="fill:#8b31b9;fill-opacity:1;stroke:none"
       width="1.9237608"
       height="2.0986495"
       x="417.45135"
       y="680.18732"
       transform="rotate(2.815372)"
       id="rect4133" />
    <rect
       style="fill:#8b31b9;fill-opacity:1;stroke:none"
       width="1.9237608"
       height="2.0986495"
       x="-356.14111"
       y="718.75562"
       transform="matrix(-0.998793,0.04911774,0.04911774,0.998793,0,0)"
       id="rect4135" />
    <rect
       style="fill:#8b31b9;fill-opacity:1;stroke:none"
       width="1.9237608"
       height="2.0986495"
       x="-589.47699"
       y="-539.26038"
       transform="rotate(-161.94651)"
       id="rect4137" />
    <rect
       style="fill:#8b31b9;fill-opacity:1;stroke:none"
       width="1.9237608"
       height="2.0986495"
       x="-578.8255"
       y="-532.69989"
       transform="rotate(-161.94651)"
       id="rect4139" />
    <rect
       style="fill:#8b31b9;fill-opacity:1;stroke:none"
       width="1.9237608"
       height="2.0986495"
       x="-588.31372"
       y="-530.0882"
       transform="rotate(-161.94651)"
       id="rect4141" />
    <rect
       style="fill:#8b31b9;fill-opacity:1;stroke:none"
       width="1.9237608"
       height="2.0986495"
       x="-590.65393"
       y="-534.68323"
       transform="rotate(-161.94651)"
       id="rect4143" />
    <rect
       style="fill:#8b31b9;fill-opacity:1;stroke:none"
       width="1.9237608"
       height="2.0986495"
       x="-581.57251"
       y="-541.61658"
       transform="rotate(-161.94651)"
       id="rect4145" />
    <rect
       style="fill:#8b31b9;fill-opacity:1;stroke:none"
       width="1.9237608"
       height="2.0986495"
       x="-586.47406"
       y="-547.59149"
       transform="rotate(-161.94651)"
       id="rect4147" />
    <rect
       style="fill:#8b31b9;fill-opacity:1;stroke:none"
       width="1.9237608"
       height="2.0986495"
       x="-583.45117"
       y="-533.89014"
       transform="rotate(-161.94651)"
       id="rect4149" />
    <rect
       style="fill:#8b31b9;fill-opacity:1;stroke:none"
       width="1.9237608"
       height="2.0986495"
       x="-586.13397"
       y="-539.06995"
       transform="rotate(-161.94651)"
       id="rect4151" />
    <rect
       style="fill:#8b31b9;fill-opacity:1;stroke:none"
       width="1.9237608"
       height="2.0986495"
       x="-584.77802"
       y="-545.30121"
       transform="rotate(-161.94651)"
       id="rect4153" />
    <rect
       style="fill:#8b31b9;fill-opacity:1;stroke:none"
       width="1.9237608"
       height="2.0986495"
       x="-589.04474"
       y="-543.25586"
       transform="rotate(-161.94651)"
       id="rect4155" />
    <rect
       style="fill:#8b31b9;fill-opacity:1;stroke:none"
       width="1.9237608"
       height="2.0986495"
       x="-574.20276"
       y="-536.1344"
       transform="rotate(-161.94651)"
       id="rect4157" />
    <rect
       style="fill:#8b31b9;fill-opacity:1;stroke:none"
       width="1.9237608"
       height="2.0986495"
       x="-580.27026"
       y="-536.72894"
       transform="rotate(-161.94651)"
       id="rect4159" />
    <rect
       style="fill:#8b31b9;fill-opacity:1;stroke:none"
       width="1.9237608"
       height="2.0986495"
       x="395.27893"
       y="677.95081"
       transform="rotate(2.815372)"
       id="rect4161" />
    <rect
       style="fill:#8b31b9;fill-opacity:1;stroke:none"
       width="1.9237608"
       height="2.0986495"
       x="-330.35245"
       y="718.71307"
       transform="matrix(-0.998793,0.04911774,0.04911774,0.998793,0,0)"
       id="rect4163" />
    <rect
       style="fill:#8b31b9;fill-opacity:1;stroke:none"
       width="1.9237608"
       height="2.0986495"
       x="-555.67322"
       y="-541.08167"
       transform="rotate(-161.94651)"
       id="rect4165" />
    <rect
       style="fill:#8b31b9;fill-opacity:1;stroke:none"
       width="1.9237608"
       height="2.0986495"
       x="-568.04596"
       y="-540.26031"
       transform="rotate(-161.94651)"
       id="rect4167" />
    <rect
       style="fill:#8b31b9;fill-opacity:1;stroke:none"
       width="1.9237608"
       height="2.0986495"
       x="-563.09912"
       y="-554.31012"
       transform="rotate(-161.94651)"
       id="rect4169" />
    <rect
       style="fill:#8b31b9;fill-opacity:1;stroke:none"
       width="1.9237608"
       height="2.0986495"
       x="-566.74481"
       y="-553.88104"
       transform="rotate(-161.94651)"
       id="rect4171" />
    <rect
       style="fill:#8b31b9;fill-opacity:1;stroke:none"
       width="1.9237608"
       height="2.0986493"
       x="-655.94739"
       y="-439.55536"
       transform="rotate(-151.56015)"
       id="rect4173" />
    <rect
       style="fill:#8b31b9;fill-opacity:1;stroke:none"
       width="1.9237608"
       height="2.0986495"
       x="-560.52856"
       y="-548.6908"
       transform="rotate(-161.94651)"
       id="rect4175" />
    <rect
       style="fill:#8b31b9;fill-opacity:1;stroke:none"
       width="1.9237608"
       height="2.0986495"
       x="-557.18207"
       y="-550.36224"
       transform="rotate(-161.94651)"
       id="rect4177" />
    <rect
       style="fill:#8b31b9;fill-opacity:1;stroke:none"
       width="1.9237608"
       height="2.0986495"
       x="-565.84448"
       y="-546.23523"
       transform="rotate(-161.94651)"
       id="rect4179" />
    <rect
       style="fill:#8b31b9;fill-opacity:1;stroke:none"
       width="1.9237608"
       height="2.0986495"
       x="-561.98907"
       y="-537.4621"
       transform="rotate(-161.94651)"
       id="rect4181" />
    <rect
       style="fill:#8b31b9;fill-opacity:1;stroke:none"
       width="1.9237608"
       height="2.0986495"
       x="-559.03961"
       y="-541.42395"
       transform="rotate(-161.50235)"
       id="rect4183" />
    <rect
       style="fill:#8b31b9;fill-opacity:1;stroke:none"
       width="1.9237608"
       height="2.0986495"
       x="-562.37494"
       y="-543.30066"
       transform="rotate(-161.94651)"
       id="rect4185" />
    <path
       style="color:#000000;text-indent:0;text-transform:none;direction:ltr;baseline-shift:baseline;display:inline;overflow:visible;visibility:visible;fill:#8b31b9;fill-opacity:1;stroke:none;enable-background:accumulate"
       d="m 17,38.3125 -0.3125,0.46875 c -4.21705,6.5097 -4.71966,12.27569 -2.90625,17.25 1.73648,4.76328 5.52221,8.72574 9.84375,12.3125 -5.04251,4.53101 -8.18258,8.7496 -9.6875,12.71875 -1.55603,4.10395 -1.4097,7.95327 -0.09375,11.4375 l 0.25,0.65625 c 0.0081,-0.0042 2.048471,0.03995 2.048471,0.03995 -1.446666,-3.25737 -1.592244,-8.085113 -0.329721,-11.414946 1.35739,-3.58003 4.29267,-7.58634 9.21875,-12 3.55023,3.17056 7.12255,6.19722 9.21875,9.5625 2.09006,3.35541 2.35166,7.85774 0.34375,12.6875 H 34.5625 l -0.34375,1.125 h 1.5 0.65625 l 0.25,-0.59375 C 39.19475,86.91175 38.37148,82.1888 35.9375,78.28125 33.56549,74.4732 29.78489,71.34147 26.21875,68.15625 34.04743,62.08428 37.61834,56.82742 38.15625,51.96875 38.12215,46.42506 35.3177,41.76522 32.375,38.3125 h -0.46875 -14.375 z m 14.03125,1.40625 c 3.10211,3.64967 5.58064,7.91566 5.125,12.03125 -0.45618,4.12047 -3.58523,8.99728 -11.34375,14.96875 -4.14684,-3.4596 -7.62847,-7.1842 -9.15625,-11.375 -1.56517,-4.29338 -1.39901,-9.53029 2.28125,-15.4375 z"
       transform="translate(351.5581,675.27766)"
       marker="none"
       visibility="visible"
       display="inline"
       overflow="visible"
       id="path4187"
       inkscape:connector-curvature="0" />
  </g>
  <path
     style="fill:none;stroke-width:0.50794864"
     d="M 2.970003,38.560956 C 1.0627192,37.887666 0.38983907,37.379795 0.26794419,36.521517 0.07546995,35.166281 0.05902562,35.169242 2.383707,36.140556 c 1.0029461,0.419057 2.0594569,0.761923 2.3478015,0.761923 0.3461198,0 0.5242635,-4.2287 0.5242635,-12.444743 0,-13.828135 0.2308739,-13.022751 -3.4320069,-11.972251 -1.43519173,0.411608 -1.64747974,0.351231 -1.64747974,-0.468556 0,-1.374886 3.11242374,-2.2846229 7.61922994,-2.2270407 C 14.1157,9.8706396 19.283225,12.491199 26.339409,19.193884 l 3.638131,3.455869 2.347125,-2.718665 c 1.290919,-1.495266 3.785857,-3.803987 5.544307,-5.13049 7.940953,-5.9903363 14.985943,-6.7258564 23.70829,-2.475224 2.128737,1.037389 4.074703,1.837696 4.324375,1.77846 1.319265,-0.313006 3.355667,0.600408 3.355667,1.50516 0,0.536546 0.342865,0.975538 0.761923,0.975538 0.419057,0 0.761923,0.244904 0.761923,0.544231 0,0.299327 0.363209,0.907441 0.807135,1.351365 0.737547,0.737547 0.730491,0.850027 -0.08185,1.304636 -0.660603,0.36969 -1.051561,0.275172 -1.521789,-0.367907 -0.348042,-0.475974 -1.454095,-0.967274 -2.457893,-1.091776 l -1.82509,-0.226368 v 6.154561 c 0,5.662264 0.0711,6.12529 0.88891,5.788614 2.149299,-0.884827 2.572638,-0.839408 2.939139,0.31534 0.229643,0.723547 0.151759,1.239716 -0.205003,1.358638 -0.842418,0.280806 -0.702498,1.123023 0.186569,1.123023 0.423289,0 0.761923,0.45151 0.761923,1.015898 0,1.140035 -1.773325,1.446647 -2.203339,0.380961 -0.204962,-0.507948 -0.26422,-0.507948 -0.296302,0 -0.06801,1.076852 -2.071897,0.752019 -2.071897,-0.335857 0,-0.827732 -0.489099,-0.642818 -3.318936,1.254796 -5.765832,3.86641 -12.124552,5.185686 -16.60777,3.445696 C 41.506826,36.943871 35.371241,31.852395 31.325807,26.610084 L 30.2429,25.206791 24.73363,30.695772 C 17.781322,37.622479 15.23886,39.064926 9.5796281,39.293285 6.6417384,39.411833 4.8033452,39.208145 2.970003,38.560956 Z m 48.060233,-13.76853 c -0.176369,-11.565138 -0.116035,-12.779432 0.634936,-12.779432 0.745674,0 0.829826,1.28779 0.829826,12.698717 0,14.078614 -0.184279,13.426049 3.371794,11.940227 L 57.682114,35.893449 57.31444,24.080209 C 57.112221,17.582927 56.867588,12.179889 56.770813,12.073457 56.343227,11.603209 49.531067,11.442816 47.92346,11.865145 l -1.77782,0.467045 0.181523,12.158157 c 0.09984,6.686986 0.259671,12.241798 0.355185,12.344026 0.284883,0.304908 3.48591,0.983978 4.03483,0.855954 0.328439,-0.0766 0.439075,-4.634752 0.313058,-12.897901 z M 11.541637,35.823088 c 0.174607,-0.873037 0.317468,-6.557363 0.317468,-12.631836 V 12.146756 L 9.7231937,11.860271 C 8.5484431,11.702703 7.4055586,11.686097 7.1834504,11.823367 6.9613427,11.960637 6.779618,17.773882 6.779618,24.741688 v 12.668739 h 2.2222754 c 2.0825896,0 2.2422306,-0.09978 2.5397436,-1.587339 z m 5.269967,-0.5438 1.650833,-0.999409 V 24.678839 15.0778 l -2.460975,-1.247071 -2.460977,-1.247071 -0.331188,8.730757 c -0.182154,4.801916 -0.331887,10.289054 -0.332742,12.19364 -0.0015,3.355348 0.03394,3.452134 1.141331,3.116762 0.628587,-0.190366 1.88576,-0.795854 2.793718,-1.345529 z M 44.875768,24.457736 c 0,-6.285864 -0.171433,-11.425084 -0.380962,-11.420489 -0.209528,0.0046 -1.295269,0.525401 -2.412756,1.157345 l -2.031794,1.14899 -0.163689,4.303102 c -0.09003,2.366707 -0.01106,6.424031 0.175489,9.016275 0.339125,4.712435 0.339466,4.713367 2.186409,5.968397 1.015976,0.690374 2.022746,1.255225 2.237267,1.255225 0.21452,0 0.390036,-5.14298 0.390036,-11.428845 z m 18.066327,8.037165 1.558,-1.433832 -0.20513,-7.915953 -0.205135,-7.915952 -2.749724,-1.348592 -2.749724,-1.348591 v 11.43637 11.43637 l 1.396859,-0.737994 c 0.768272,-0.405897 2.09796,-1.383219 2.954854,-2.171826 z M 24.259837,28.690834 c 2.119494,-2.28143 3.853625,-4.434396 3.853625,-4.784367 0,-0.66389 -7.025672,-7.321935 -7.726219,-7.321935 -0.220528,0 -0.40096,1.564923 -0.40096,3.477607 0,1.912684 -0.148516,5.569915 -0.330036,8.127179 -0.223737,3.152031 -0.156111,4.649571 0.209965,4.649571 0.297,0 2.274132,-1.866625 4.393625,-4.148055 z m 14.520547,-4.233098 c 0,-4.389438 -0.19789,-7.365255 -0.489784,-7.365255 -0.569277,0 -6.621497,6.116715 -6.621497,6.692058 0,0.419493 6.532657,8.038453 6.89234,8.038453 0.120418,0 0.218941,-3.314365 0.218941,-7.365256 z"
     id="path4203"
     inkscape:connector-curvature="0" />
  <path
     style="fill:none;stroke-width:0.17958698"
     d="M 5.3362483,40.731994 C 3.6177383,40.445513 2.3992655,40.093756 0.53229674,39.345157 L -0.8595023,38.787088 v -1.226162 -1.226161 l 1.93056,0.685967 c 1.0618079,0.377283 2.1808666,0.739816 2.486797,0.805627 l 0.5562369,0.119659 0.09988,-12.354851 c 0.054934,-6.795168 0.067975,-12.387822 0.028981,-12.428119 -0.116509,-0.120401 -3.1054072,0.511493 -4.14092902,0.875449 l -0.96152568,0.337949 v -1.145291 -1.145291 l 1.6611795,-0.531437 c 4.5347887,-1.45075 9.2379346,-1.149848 13.8854026,0.888373 3.612555,1.584343 6.990891,4.052027 11.236103,8.207337 l 2.987413,2.924148 2.041022,-2.284121 c 9.476625,-10.605346 18.838807,-13.2363322 29.338244,-8.244716 1.086501,0.516542 2.520952,1.275017 3.187669,1.6855 0.859241,0.529016 1.212212,0.668459 1.212212,0.478888 0,-0.209141 0.251754,-0.267444 1.154825,-0.267444 1.060867,0 1.159494,0.03288 1.212212,0.404071 0.04703,0.331142 0.187036,0.413614 0.775735,0.45695 l 0.718348,0.05288 -0.06223,0.889951 c -0.0618,0.883838 -0.05851,0.889952 0.479176,0.889952 0.885175,0 1.109542,0.163904 1.109542,0.810542 0,0.480871 0.06056,0.576691 0.32136,0.50849 0.255024,-0.06669 0.383984,0.111797 0.624747,0.864679 0.166864,0.521794 0.24449,1.002455 0.172504,1.068134 -0.07199,0.06568 -0.559984,0.242404 -1.084441,0.39272 l -0.953558,0.273303 -0.167427,-0.440366 c -0.09208,-0.2422 -0.214781,-0.62904 -0.272658,-0.859644 -0.0824,-0.328319 -0.261518,-0.440242 -0.825625,-0.515904 -0.396213,-0.05314 -0.966125,-0.01096 -1.26647,0.09374 -0.451101,0.157255 -0.574802,0.139039 -0.711224,-0.10473 -0.09083,-0.162302 -0.363162,-0.295095 -0.605186,-0.295095 H 64.86933 v 6.016164 6.016163 h 0.448967 c 0.359174,0 0.448968,-0.08979 0.448968,-0.448967 0,-0.432081 0.04319,-0.448967 1.148101,-0.448967 0.854868,0 1.174504,0.0688 1.251473,0.26938 0.05685,0.148159 0.256961,0.269381 0.444683,0.269381 0.254893,0 0.369498,0.170519 0.452627,0.673451 0.216074,1.307244 0.166984,1.481592 -0.417175,1.481592 -0.348643,0 -0.598797,0.123987 -0.724666,0.359174 -0.177027,0.330781 -0.136574,0.359174 0.51175,0.359174 h 0.703973 l 0.125298,1.002848 c 0.06892,0.551567 0.08405,1.044099 0.03363,1.094516 -0.05042,0.05042 -1.148074,0.03324 -2.439236,-0.03817 l -2.347568,-0.129832 v -0.783443 -0.783443 l -1.544964,1.142403 c -4.444946,3.286758 -8.812275,5.051531 -13.042514,5.270284 -1.493128,0.07721 -2.220431,0.02844 -3.232566,-0.216755 -4.910563,-1.18963 -10.240798,-5.167566 -15.645328,-11.676055 -0.984495,-1.185595 -1.844141,-2.1779 -1.910322,-2.205123 -0.06618,-0.02722 -1.394645,1.368262 -2.952146,3.101077 -4.678106,5.204684 -7.532197,7.635304 -10.968784,9.34131 -3.212215,1.594621 -6.6756228,2.167489 -9.8772837,1.633764 z M 50.070293,25.807404 49.941265,12.966935 h 0.790919 0.790921 l 0.11768,3.367256 c 0.06472,1.851991 0.117909,6.971495 0.118188,11.376677 3.59e-4,4.405182 0.05277,8.627721 0.116654,9.383419 0.139462,1.649848 0.09254,1.635552 2.577658,0.78532 l 1.706077,-0.583699 0.04301,-5.654458 c 0.02366,-3.109952 -0.01676,-8.481171 -0.08979,-11.93604 l -0.132806,-6.281581 -0.987729,-0.248944 c -1.5711,-0.395977 -6.577342,-0.376706 -8.320476,0.03203 l -1.40638,0.329771 0.125535,12.06173 c 0.06904,6.633952 0.194868,12.136547 0.27961,12.227989 0.261394,0.282059 2.534301,0.800202 3.558094,0.811117 l 0.970892,0.01035 z M 10.382532,38.240918 c 0.08675,-0.08675 0.440843,-24.605773 0.356563,-24.690053 C 10.571891,13.383661 9.2637331,13.171553 7.656582,13.05106 l -1.6917793,-0.126837 -3.484e-4,7.698699 c -1.976e-4,4.234285 -0.053451,9.935213 -0.1183536,12.668729 l -0.1180052,4.97003 0.6122178,0.08658 c 0.6046499,0.08551 3.9378877,-0.003 4.0422187,-0.107339 z m 3.933065,-1.200527 c 0.790183,-0.37539 1.780156,-0.935519 2.19994,-1.244726 l 0.763245,-0.562197 V 25.80853 16.383593 L 16.515537,15.90066 c -0.856359,-0.541851 -3.594005,-1.856203 -3.86626,-1.856203 -0.112037,0 -0.216824,3.269519 -0.286347,8.934452 -0.06031,4.913949 -0.144586,10.291589 -0.187289,11.950313 l -0.07764,3.01586 0.390451,-0.11108 c 0.214747,-0.0611 1.036963,-0.41822 1.827145,-0.793611 z M 43.739769,25.672714 c -0.06133,-6.247382 -0.135496,-11.387334 -0.16481,-11.422115 -0.114799,-0.136205 -3.377911,1.703133 -3.92872,2.214525 l -0.584335,0.542518 0.108142,8.506277 0.10814,8.506277 0.718348,0.62376 c 0.727496,0.6317 3.460151,2.387634 3.715735,2.387634 0.07646,0 0.08883,-5.111495 0.0275,-11.358876 z m 16.429445,9.215038 c 0.856538,-0.586748 1.900804,-1.36089 2.320588,-1.720319 l 0.763245,-0.653506 -0.02363,-5.957272 c -0.013,-3.276501 -0.07361,-6.886636 -0.134691,-8.022524 l -0.111063,-2.06525 -2.244838,-1.112238 c -1.23466,-0.611732 -2.407429,-1.156567 -2.606155,-1.210745 -0.359124,-0.09791 -0.361024,-0.04155 -0.312858,9.283446 0.05626,10.892009 0.134846,12.777413 0.526322,12.627191 0.146152,-0.05608 0.966536,-0.582036 1.823076,-1.168783 z M 21.517692,31.419497 c 2.830371,-2.868063 5.638373,-5.980466 5.638373,-6.2496 0,-0.526485 -7.552063,-7.5337 -8.119484,-7.5337 -0.07783,0 -0.141516,3.636636 -0.141516,8.081413 0,4.444778 0.06173,8.081414 0.137184,8.081414 0.07545,0 1.193902,-1.070787 2.485443,-2.379527 z m 15.918433,-9.473213 -0.133895,-3.86112 -2.617997,2.604011 c -1.4399,1.432206 -2.922737,2.985872 -3.295193,3.45259 l -0.677194,0.848579 1.589365,1.933398 c 0.874152,1.06337 2.397507,2.772934 3.385236,3.799031 l 1.795869,1.86563 0.04385,-3.390499 c 0.02412,-1.864775 -0.0164,-5.128004 -0.09004,-7.25162 z"
     id="path5014"
     inkscape:connector-curvature="0" />
  <path
     style="fill:none;stroke-width:0.17958698"
     d="M 5.3362483,40.731994 C 3.6177383,40.445513 2.3992655,40.093756 0.53229674,39.345157 L -0.8595023,38.787088 v -1.226162 -1.226161 l 1.93056,0.685967 c 1.0618079,0.377283 2.1808666,0.739816 2.486797,0.805627 l 0.5562369,0.119659 0.09988,-12.354851 c 0.054934,-6.795168 0.067975,-12.387822 0.028981,-12.428119 -0.116509,-0.120401 -3.1054072,0.511493 -4.14092902,0.875449 l -0.96152568,0.337949 v -1.145291 -1.145291 l 1.6611795,-0.531437 c 4.5347887,-1.45075 9.2379346,-1.149848 13.8854026,0.888373 3.612555,1.584343 6.990891,4.052027 11.236103,8.207337 l 2.987413,2.924148 2.041022,-2.284121 c 9.476625,-10.605346 18.838807,-13.2363322 29.338244,-8.244716 1.086501,0.516542 2.520952,1.275017 3.187669,1.6855 0.859241,0.529016 1.212212,0.668459 1.212212,0.478888 0,-0.209141 0.251754,-0.267444 1.154825,-0.267444 1.060867,0 1.159494,0.03288 1.212212,0.404071 0.04703,0.331142 0.187036,0.413614 0.775735,0.45695 l 0.718348,0.05288 -0.06223,0.889951 c -0.0618,0.883838 -0.05851,0.889952 0.479176,0.889952 0.885175,0 1.109542,0.163904 1.109542,0.810542 0,0.480871 0.06056,0.576691 0.32136,0.50849 0.255024,-0.06669 0.383984,0.111797 0.624747,0.864679 0.166864,0.521794 0.24449,1.002455 0.172504,1.068134 -0.07199,0.06568 -0.559984,0.242404 -1.084441,0.39272 l -0.953558,0.273303 -0.167427,-0.440366 c -0.09208,-0.2422 -0.214781,-0.62904 -0.272658,-0.859644 -0.0824,-0.328319 -0.261518,-0.440242 -0.825625,-0.515904 -0.396213,-0.05314 -0.966125,-0.01096 -1.26647,0.09374 -0.451101,0.157255 -0.574802,0.139039 -0.711224,-0.10473 -0.09083,-0.162302 -0.363162,-0.295095 -0.605186,-0.295095 H 64.86933 v 6.016164 6.016163 h 0.448967 c 0.359174,0 0.448968,-0.08979 0.448968,-0.448967 0,-0.432081 0.04319,-0.448967 1.148101,-0.448967 0.854868,0 1.174504,0.0688 1.251473,0.26938 0.05685,0.148159 0.256961,0.269381 0.444683,0.269381 0.254893,0 0.369498,0.170519 0.452627,0.673451 0.216074,1.307244 0.166984,1.481592 -0.417175,1.481592 -0.348643,0 -0.598797,0.123987 -0.724666,0.359174 -0.177027,0.330781 -0.136574,0.359174 0.51175,0.359174 h 0.703973 l 0.125298,1.002848 c 0.06892,0.551567 0.08405,1.044099 0.03363,1.094516 -0.05042,0.05042 -1.148074,0.03324 -2.439236,-0.03817 l -2.347568,-0.129832 v -0.783443 -0.783443 l -1.544964,1.142403 c -4.444946,3.286758 -8.812275,5.051531 -13.042514,5.270284 -1.493128,0.07721 -2.220431,0.02844 -3.232566,-0.216755 -4.910563,-1.18963 -10.240798,-5.167566 -15.645328,-11.676055 -0.984495,-1.185595 -1.844141,-2.1779 -1.910322,-2.205123 -0.06618,-0.02722 -1.394645,1.368262 -2.952146,3.101077 -4.678106,5.204684 -7.532197,7.635304 -10.968784,9.34131 -3.212215,1.594621 -6.6756228,2.167489 -9.8772837,1.633764 z M 50.070293,25.807404 49.941265,12.966935 h 0.790919 0.790921 l 0.11768,3.367256 c 0.06472,1.851991 0.117909,6.971495 0.118188,11.376677 3.59e-4,4.405182 0.05277,8.627721 0.116654,9.383419 0.139462,1.649848 0.09254,1.635552 2.577658,0.78532 l 1.706077,-0.583699 0.04301,-5.654458 c 0.02366,-3.109952 -0.01676,-8.481171 -0.08979,-11.93604 l -0.132806,-6.281581 -0.987729,-0.248944 c -1.5711,-0.395977 -6.577342,-0.376706 -8.320476,0.03203 l -1.40638,0.329771 0.125535,12.06173 c 0.06904,6.633952 0.194868,12.136547 0.27961,12.227989 0.261394,0.282059 2.534301,0.800202 3.558094,0.811117 l 0.970892,0.01035 z M 10.382532,38.240918 c 0.08675,-0.08675 0.440843,-24.605773 0.356563,-24.690053 C 10.571891,13.383661 9.2637331,13.171553 7.656582,13.05106 l -1.6917793,-0.126837 -3.484e-4,7.698699 c -1.976e-4,4.234285 -0.053451,9.935213 -0.1183536,12.668729 l -0.1180052,4.97003 0.6122178,0.08658 c 0.6046499,0.08551 3.9378877,-0.003 4.0422187,-0.107339 z m 3.933065,-1.200527 c 0.790183,-0.37539 1.780156,-0.935519 2.19994,-1.244726 l 0.763245,-0.562197 V 25.80853 16.383593 L 16.515537,15.90066 c -0.856359,-0.541851 -3.594005,-1.856203 -3.86626,-1.856203 -0.112037,0 -0.216824,3.269519 -0.286347,8.934452 -0.06031,4.913949 -0.144586,10.291589 -0.187289,11.950313 l -0.07764,3.01586 0.390451,-0.11108 c 0.214747,-0.0611 1.036963,-0.41822 1.827145,-0.793611 z M 43.739769,25.672714 c -0.06133,-6.247382 -0.135496,-11.387334 -0.16481,-11.422115 -0.114799,-0.136205 -3.377911,1.703133 -3.92872,2.214525 l -0.584335,0.542518 0.108142,8.506277 0.10814,8.506277 0.718348,0.62376 c 0.727496,0.6317 3.460151,2.387634 3.715735,2.387634 0.07646,0 0.08883,-5.111495 0.0275,-11.358876 z m 16.429445,9.215038 c 0.856538,-0.586748 1.900804,-1.36089 2.320588,-1.720319 l 0.763245,-0.653506 -0.02363,-5.957272 c -0.013,-3.276501 -0.07361,-6.886636 -0.134691,-8.022524 l -0.111063,-2.06525 -2.244838,-1.112238 c -1.23466,-0.611732 -2.407429,-1.156567 -2.606155,-1.210745 -0.359124,-0.09791 -0.361024,-0.04155 -0.312858,9.283446 0.05626,10.892009 0.134846,12.777413 0.526322,12.627191 0.146152,-0.05608 0.966536,-0.582036 1.823076,-1.168783 z M 21.517692,31.419497 c 2.830371,-2.868063 5.638373,-5.980466 5.638373,-6.2496 0,-0.526485 -7.552063,-7.5337 -8.119484,-7.5337 -0.07783,0 -0.141516,3.636636 -0.141516,8.081413 0,4.444778 0.06173,8.081414 0.137184,8.081414 0.07545,0 1.193902,-1.070787 2.485443,-2.379527 z m 15.918433,-9.473213 -0.133895,-3.86112 -2.617997,2.604011 c -1.4399,1.432206 -2.922737,2.985872 -3.295193,3.45259 l -0.677194,0.848579 1.589365,1.933398 c 0.874152,1.06337 2.397507,2.772934 3.385236,3.799031 l 1.795869,1.86563 0.04385,-3.390499 c 0.02412,-1.864775 -0.0164,-5.128004 -0.09004,-7.25162 z"
     id="path5016"
     inkscape:connector-curvature="0" />
  <path
     style="fill:none;stroke-width:0.17958698"
     d="M 5.3362483,40.731994 C 3.6177383,40.445513 2.3992655,40.093756 0.53229674,39.345157 L -0.8595023,38.787088 v -1.226162 -1.226161 l 1.93056,0.685967 c 1.0618079,0.377283 2.1808666,0.739816 2.486797,0.805627 l 0.5562369,0.119659 0.09988,-12.354851 c 0.054934,-6.795168 0.067975,-12.387822 0.028981,-12.428119 -0.116509,-0.120401 -3.1054072,0.511493 -4.14092902,0.875449 l -0.96152568,0.337949 v -1.145291 -1.145291 l 1.6611795,-0.531437 c 4.5347887,-1.45075 9.2379346,-1.149848 13.8854026,0.888373 3.612555,1.584343 6.990891,4.052027 11.236103,8.207337 l 2.987413,2.924148 2.041022,-2.284121 c 9.476625,-10.605346 18.838807,-13.2363322 29.338244,-8.244716 1.086501,0.516542 2.520952,1.275017 3.187669,1.6855 0.859241,0.529016 1.212212,0.668459 1.212212,0.478888 0,-0.209141 0.251754,-0.267444 1.154825,-0.267444 1.060867,0 1.159494,0.03288 1.212212,0.404071 0.04703,0.331142 0.187036,0.413614 0.775735,0.45695 l 0.718348,0.05288 -0.06223,0.889951 c -0.0618,0.883838 -0.05851,0.889952 0.479176,0.889952 0.885175,0 1.109542,0.163904 1.109542,0.810542 0,0.480871 0.06056,0.576691 0.32136,0.50849 0.255024,-0.06669 0.383984,0.111797 0.624747,0.864679 0.166864,0.521794 0.24449,1.002455 0.172504,1.068134 -0.07199,0.06568 -0.559984,0.242404 -1.084441,0.39272 l -0.953558,0.273303 -0.167427,-0.440366 c -0.09208,-0.2422 -0.214781,-0.62904 -0.272658,-0.859644 -0.0824,-0.328319 -0.261518,-0.440242 -0.825625,-0.515904 -0.396213,-0.05314 -0.966125,-0.01096 -1.26647,0.09374 -0.451101,0.157255 -0.574802,0.139039 -0.711224,-0.10473 -0.09083,-0.162302 -0.363162,-0.295095 -0.605186,-0.295095 H 64.86933 v 6.016164 6.016163 h 0.448967 c 0.359174,0 0.448968,-0.08979 0.448968,-0.448967 0,-0.432081 0.04319,-0.448967 1.148101,-0.448967 0.854868,0 1.174504,0.0688 1.251473,0.26938 0.05685,0.148159 0.256961,0.269381 0.444683,0.269381 0.254893,0 0.369498,0.170519 0.452627,0.673451 0.216074,1.307244 0.166984,1.481592 -0.417175,1.481592 -0.348643,0 -0.598797,0.123987 -0.724666,0.359174 -0.177027,0.330781 -0.136574,0.359174 0.51175,0.359174 h 0.703973 l 0.125298,1.002848 c 0.06892,0.551567 0.08405,1.044099 0.03363,1.094516 -0.05042,0.05042 -1.148074,0.03324 -2.439236,-0.03817 l -2.347568,-0.129832 v -0.783443 -0.783443 l -1.544964,1.142403 c -4.444946,3.286758 -8.812275,5.051531 -13.042514,5.270284 -1.493128,0.07721 -2.220431,0.02844 -3.232566,-0.216755 -4.910563,-1.18963 -10.240798,-5.167566 -15.645328,-11.676055 -0.984495,-1.185595 -1.844141,-2.1779 -1.910322,-2.205123 -0.06618,-0.02722 -1.394645,1.368262 -2.952146,3.101077 -4.678106,5.204684 -7.532197,7.635304 -10.968784,9.34131 -3.212215,1.594621 -6.6756228,2.167489 -9.8772837,1.633764 z M 50.070293,25.807404 49.941265,12.966935 h 0.790919 0.790921 l 0.11768,3.367256 c 0.06472,1.851991 0.117909,6.971495 0.118188,11.376677 3.59e-4,4.405182 0.05277,8.627721 0.116654,9.383419 0.139462,1.649848 0.09254,1.635552 2.577658,0.78532 l 1.706077,-0.583699 0.04301,-5.654458 c 0.02366,-3.109952 -0.01676,-8.481171 -0.08979,-11.93604 l -0.132806,-6.281581 -0.987729,-0.248944 c -1.5711,-0.395977 -6.577342,-0.376706 -8.320476,0.03203 l -1.40638,0.329771 0.125535,12.06173 c 0.06904,6.633952 0.194868,12.136547 0.27961,12.227989 0.261394,0.282059 2.534301,0.800202 3.558094,0.811117 l 0.970892,0.01035 z M 10.382532,38.240918 c 0.08675,-0.08675 0.440843,-24.605773 0.356563,-24.690053 C 10.571891,13.383661 9.2637331,13.171553 7.656582,13.05106 l -1.6917793,-0.126837 -3.484e-4,7.698699 c -1.976e-4,4.234285 -0.053451,9.935213 -0.1183536,12.668729 l -0.1180052,4.97003 0.6122178,0.08658 c 0.6046499,0.08551 3.9378877,-0.003 4.0422187,-0.107339 z m 3.933065,-1.200527 c 0.790183,-0.37539 1.780156,-0.935519 2.19994,-1.244726 l 0.763245,-0.562197 V 25.80853 16.383593 L 16.515537,15.90066 c -0.856359,-0.541851 -3.594005,-1.856203 -3.86626,-1.856203 -0.112037,0 -0.216824,3.269519 -0.286347,8.934452 -0.06031,4.913949 -0.144586,10.291589 -0.187289,11.950313 l -0.07764,3.01586 0.390451,-0.11108 c 0.214747,-0.0611 1.036963,-0.41822 1.827145,-0.793611 z M 43.739769,25.672714 c -0.06133,-6.247382 -0.135496,-11.387334 -0.16481,-11.422115 -0.114799,-0.136205 -3.377911,1.703133 -3.92872,2.214525 l -0.584335,0.542518 0.108142,8.506277 0.10814,8.506277 0.718348,0.62376 c 0.727496,0.6317 3.460151,2.387634 3.715735,2.387634 0.07646,0 0.08883,-5.111495 0.0275,-11.358876 z m 16.429445,9.215038 c 0.856538,-0.586748 1.900804,-1.36089 2.320588,-1.720319 l 0.763245,-0.653506 -0.02363,-5.957272 c -0.013,-3.276501 -0.07361,-6.886636 -0.134691,-8.022524 l -0.111063,-2.06525 -2.244838,-1.112238 c -1.23466,-0.611732 -2.407429,-1.156567 -2.606155,-1.210745 -0.359124,-0.09791 -0.361024,-0.04155 -0.312858,9.283446 0.05626,10.892009 0.134846,12.777413 0.526322,12.627191 0.146152,-0.05608 0.966536,-0.582036 1.823076,-1.168783 z M 21.517692,31.419497 c 2.830371,-2.868063 5.638373,-5.980466 5.638373,-6.2496 0,-0.526485 -7.552063,-7.5337 -8.119484,-7.5337 -0.07783,0 -0.141516,3.636636 -0.141516,8.081413 0,4.444778 0.06173,8.081414 0.137184,8.081414 0.07545,0 1.193902,-1.070787 2.485443,-2.379527 z m 15.918433,-9.473213 -0.133895,-3.86112 -2.617997,2.604011 c -1.4399,1.432206 -2.922737,2.985872 -3.295193,3.45259 l -0.677194,0.848579 1.589365,1.933398 c 0.874152,1.06337 2.397507,2.772934 3.385236,3.799031 l 1.795869,1.86563 0.04385,-3.390499 c 0.02412,-1.864775 -0.0164,-5.128004 -0.09004,-7.25162 z"
     id="path5018"
     inkscape:connector-curvature="0" />
  <path
     style="fill:none;stroke-width:0.17958698"
     d="M 5.3362483,40.731994 C 3.6177383,40.445513 2.3992655,40.093756 0.53229674,39.345157 L -0.8595023,38.787088 v -1.226162 -1.226161 l 1.93056,0.685967 c 1.0618079,0.377283 2.1808666,0.739816 2.486797,0.805627 l 0.5562369,0.119659 0.09988,-12.354851 c 0.054934,-6.795168 0.067975,-12.387822 0.028981,-12.428119 -0.116509,-0.120401 -3.1054072,0.511493 -4.14092902,0.875449 l -0.96152568,0.337949 v -1.145291 -1.145291 l 1.6611795,-0.531437 c 4.5347887,-1.45075 9.2379346,-1.149848 13.8854026,0.888373 3.612555,1.584343 6.990891,4.052027 11.236103,8.207337 l 2.987413,2.924148 2.041022,-2.284121 c 9.476625,-10.605346 18.838807,-13.2363322 29.338244,-8.244716 1.086501,0.516542 2.520952,1.275017 3.187669,1.6855 0.859241,0.529016 1.212212,0.668459 1.212212,0.478888 0,-0.209141 0.251754,-0.267444 1.154825,-0.267444 1.060867,0 1.159494,0.03288 1.212212,0.404071 0.04703,0.331142 0.187036,0.413614 0.775735,0.45695 l 0.718348,0.05288 -0.06223,0.889951 c -0.0618,0.883838 -0.05851,0.889952 0.479176,0.889952 0.885175,0 1.109542,0.163904 1.109542,0.810542 0,0.480871 0.06056,0.576691 0.32136,0.50849 0.255024,-0.06669 0.383984,0.111797 0.624747,0.864679 0.166864,0.521794 0.24449,1.002455 0.172504,1.068134 -0.07199,0.06568 -0.559984,0.242404 -1.084441,0.39272 l -0.953558,0.273303 -0.167427,-0.440366 c -0.09208,-0.2422 -0.214781,-0.62904 -0.272658,-0.859644 -0.0824,-0.328319 -0.261518,-0.440242 -0.825625,-0.515904 -0.396213,-0.05314 -0.966125,-0.01096 -1.26647,0.09374 -0.451101,0.157255 -0.574802,0.139039 -0.711224,-0.10473 -0.09083,-0.162302 -0.363162,-0.295095 -0.605186,-0.295095 H 64.86933 v 6.016164 6.016163 h 0.448967 c 0.359174,0 0.448968,-0.08979 0.448968,-0.448967 0,-0.432081 0.04319,-0.448967 1.148101,-0.448967 0.854868,0 1.174504,0.0688 1.251473,0.26938 0.05685,0.148159 0.256961,0.269381 0.444683,0.269381 0.254893,0 0.369498,0.170519 0.452627,0.673451 0.216074,1.307244 0.166984,1.481592 -0.417175,1.481592 -0.348643,0 -0.598797,0.123987 -0.724666,0.359174 -0.177027,0.330781 -0.136574,0.359174 0.51175,0.359174 h 0.703973 l 0.125298,1.002848 c 0.06892,0.551567 0.08405,1.044099 0.03363,1.094516 -0.05042,0.05042 -1.148074,0.03324 -2.439236,-0.03817 l -2.347568,-0.129832 v -0.783443 -0.783443 l -1.544964,1.142403 c -4.444946,3.286758 -8.812275,5.051531 -13.042514,5.270284 -1.493128,0.07721 -2.220431,0.02844 -3.232566,-0.216755 -4.910563,-1.18963 -10.240798,-5.167566 -15.645328,-11.676055 -0.984495,-1.185595 -1.844141,-2.1779 -1.910322,-2.205123 -0.06618,-0.02722 -1.394645,1.368262 -2.952146,3.101077 -4.678106,5.204684 -7.532197,7.635304 -10.968784,9.34131 -3.212215,1.594621 -6.6756228,2.167489 -9.8772837,1.633764 z M 50.070293,25.807404 49.941265,12.966935 h 0.790919 0.790921 l 0.11768,3.367256 c 0.06472,1.851991 0.117909,6.971495 0.118188,11.376677 3.59e-4,4.405182 0.05277,8.627721 0.116654,9.383419 0.139462,1.649848 0.09254,1.635552 2.577658,0.78532 l 1.706077,-0.583699 0.04301,-5.654458 c 0.02366,-3.109952 -0.01676,-8.481171 -0.08979,-11.93604 l -0.132806,-6.281581 -0.987729,-0.248944 c -1.5711,-0.395977 -6.577342,-0.376706 -8.320476,0.03203 l -1.40638,0.329771 0.125535,12.06173 c 0.06904,6.633952 0.194868,12.136547 0.27961,12.227989 0.261394,0.282059 2.534301,0.800202 3.558094,0.811117 l 0.970892,0.01035 z M 10.382532,38.240918 c 0.08675,-0.08675 0.440843,-24.605773 0.356563,-24.690053 C 10.571891,13.383661 9.2637331,13.171553 7.656582,13.05106 l -1.6917793,-0.126837 -3.484e-4,7.698699 c -1.976e-4,4.234285 -0.053451,9.935213 -0.1183536,12.668729 l -0.1180052,4.97003 0.6122178,0.08658 c 0.6046499,0.08551 3.9378877,-0.003 4.0422187,-0.107339 z m 3.933065,-1.200527 c 0.790183,-0.37539 1.780156,-0.935519 2.19994,-1.244726 l 0.763245,-0.562197 V 25.80853 16.383593 L 16.515537,15.90066 c -0.856359,-0.541851 -3.594005,-1.856203 -3.86626,-1.856203 -0.112037,0 -0.216824,3.269519 -0.286347,8.934452 -0.06031,4.913949 -0.144586,10.291589 -0.187289,11.950313 l -0.07764,3.01586 0.390451,-0.11108 c 0.214747,-0.0611 1.036963,-0.41822 1.827145,-0.793611 z M 43.739769,25.672714 c -0.06133,-6.247382 -0.135496,-11.387334 -0.16481,-11.422115 -0.114799,-0.136205 -3.377911,1.703133 -3.92872,2.214525 l -0.584335,0.542518 0.108142,8.506277 0.10814,8.506277 0.718348,0.62376 c 0.727496,0.6317 3.460151,2.387634 3.715735,2.387634 0.07646,0 0.08883,-5.111495 0.0275,-11.358876 z m 16.429445,9.215038 c 0.856538,-0.586748 1.900804,-1.36089 2.320588,-1.720319 l 0.763245,-0.653506 -0.02363,-5.957272 c -0.013,-3.276501 -0.07361,-6.886636 -0.134691,-8.022524 l -0.111063,-2.06525 -2.244838,-1.112238 c -1.23466,-0.611732 -2.407429,-1.156567 -2.606155,-1.210745 -0.359124,-0.09791 -0.361024,-0.04155 -0.312858,9.283446 0.05626,10.892009 0.134846,12.777413 0.526322,12.627191 0.146152,-0.05608 0.966536,-0.582036 1.823076,-1.168783 z M 21.517692,31.419497 c 2.830371,-2.868063 5.638373,-5.980466 5.638373,-6.2496 0,-0.526485 -7.552063,-7.5337 -8.119484,-7.5337 -0.07783,0 -0.141516,3.636636 -0.141516,8.081413 0,4.444778 0.06173,8.081414 0.137184,8.081414 0.07545,0 1.193902,-1.070787 2.485443,-2.379527 z m 15.918433,-9.473213 -0.133895,-3.86112 -2.617997,2.604011 c -1.4399,1.432206 -2.922737,2.985872 -3.295193,3.45259 l -0.677194,0.848579 1.589365,1.933398 c 0.874152,1.06337 2.397507,2.772934 3.385236,3.799031 l 1.795869,1.86563 0.04385,-3.390499 c 0.02412,-1.864775 -0.0164,-5.128004 -0.09004,-7.25162 z"
     id="path5020"
     inkscape:connector-curvature="0" />
  <path
     style="fill:#8b31b9;fill-opacity:1;stroke-width:0.17958698"
     d="m 56.183295,25.418852 c -0.06827,-6.381893 -0.08925,-11.638322 -0.04662,-11.680952 0.04263,-0.04263 0.400614,0.01929 0.795517,0.137609 l 0.718006,0.215119 0.109545,2.715616 c 0.06025,1.493589 0.128881,6.45146 0.152516,11.017491 l 0.04297,8.301876 -0.823903,0.448341 -0.823904,0.44834 z"
     id="path5022"
     inkscape:connector-curvature="0" />
  <path
     style="fill:#8b31b9;fill-opacity:1;stroke-width:0.17958698"
     d="m 56.366736,33.849608 c -0.06467,-1.639736 -0.117581,-6.817206 -0.117581,-11.505487 v -8.524148 l 0.570563,0.114113 c 0.313809,0.06276 0.616862,0.160269 0.673451,0.216682 0.158824,0.158331 0.334497,7.693864 0.354348,15.199829 l 0.01792,6.775758 -0.690561,0.352297 -0.69056,0.352298 z"
     id="path5024"
     inkscape:connector-curvature="0" />
  <path
     style="fill:#8b31b9;fill-opacity:1;stroke-width:0.08979349"
     d="M 6.6382538,40.942847 C 4.0761714,40.650793 2.4107845,40.215976 0.1382054,39.245741 l -0.99770773,-0.425952 v -1.244294 c 0,-0.811002 0.032908,-1.244295 0.0945025,-1.244295 0.0519764,0 0.72879479,0.237409 1.50404086,0.527576 3.10119727,1.160746 5.67382817,1.638425 8.09915317,1.503828 5.4445348,-0.302151 8.8588668,-2.559511 16.1646488,-10.687138 1.060807,-1.18014 1.982707,-2.22229 2.048669,-2.31589 0.10796,-0.153197 0.05995,-0.237204 -0.48109,-0.841715 -0.899724,-1.005284 -2.922036,-3.023071 -4.038721,-4.029685 -4.329602,-3.902836 -8.555423,-6.344565 -12.196344,-7.04719 -3.4323273,-0.662371 -7.2648445,-0.401446 -10.41026609,0.70875 -0.4236206,0.14952 -0.79365693,0.271854 -0.82230298,0.271854 -0.0648234,0 -0.0501168,-1.020041 0.0257569,-1.786481 l 0.0568496,-0.574268 0.85303812,-0.309018 C 4.5102682,10.131875 8.9350455,10.196766 13.642146,11.951327 c 1.306289,0.486916 3.724419,1.741591 5.113403,2.653149 2.753311,1.806933 4.572468,3.334899 7.684641,6.454563 l 2.471794,2.477744 0.985256,-1.159255 c 0.54189,-0.63759 1.646493,-1.839949 2.454672,-2.671909 5.088762,-5.238501 9.622681,-7.962799 14.794597,-8.889636 1.548163,-0.277439 4.740653,-0.300319 6.274151,-0.04496 3.255182,0.542044 6.684969,1.862531 9.91709,3.818134 0.663917,0.401705 1.239718,0.730373 1.279557,0.730373 0.03984,0 0.07244,-0.107007 0.07244,-0.237793 v -0.237793 l 0.740796,0.05767 c 0.407438,0.03172 0.952933,0.05791 1.212212,0.0582 l 0.471416,5.39e-4 V 15.3083 c 0,0.317869 0.02426,0.352802 0.280605,0.404071 0.154332,0.03087 0.491162,0.05612 0.748509,0.05612 h 0.467906 l -0.04193,0.942832 -0.04193,0.942831 h 0.818766 0.818766 l -0.05655,0.668974 -0.05655,0.668974 0.326999,-0.100358 c 0.179848,-0.0552 0.341558,-0.08349 0.359354,-0.06287 0.107822,0.12493 0.673352,2.016108 0.618426,2.068065 -0.131104,0.124016 -2.215347,0.728462 -2.247007,0.651648 -0.01773,-0.04302 -0.160785,-0.441875 -0.317899,-0.886353 l -0.285664,-0.808141 -0.471416,-0.02714 c -0.328597,-0.01892 -0.471416,-0.0648 -0.471416,-0.151445 0,-0.09518 -0.182769,-0.06252 -0.780089,0.139383 -0.429048,0.145027 -0.789502,0.263686 -0.801006,0.263686 -0.0115,0 -0.04726,-0.119939 -0.07946,-0.266533 -0.04685,-0.213304 -0.118213,-0.277726 -0.357342,-0.322587 -0.16434,-0.03083 -0.373548,-0.04166 -0.464907,-0.02407 -0.159339,0.03068 -0.167046,0.274257 -0.189195,5.979578 l -0.02309,5.947596 h 0.449608 0.449609 v -0.448968 -0.448967 l 0.875486,-9.88e-4 c 0.481518,-5.39e-4 1.021155,-0.02508 1.199195,-0.05453 0.321245,-0.05314 0.324157,-0.05074 0.382684,0.315265 0.05856,0.366194 0.06174,0.36881 0.448808,0.36881 h 0.389834 l 0.05807,0.686999 c 0.03194,0.37785 0.05807,0.882938 0.05807,1.122419 v 0.435419 h -0.574873 c -0.564072,0 -0.576726,0.0053 -0.673451,0.28278 -0.05422,0.155529 -0.09858,0.290272 -0.09858,0.299428 0,0.0092 0.318496,-0.0018 0.707769,-0.02432 l 0.707769,-0.04097 0.06568,1.093204 c 0.03613,0.601262 0.05099,1.106316 0.03303,1.122342 -0.01796,0.01603 -0.56805,0.05796 -1.22242,0.09318 -1.062087,0.05716 -1.189764,0.04847 -1.189764,-0.08107 0,-0.129454 -0.130775,-0.138545 -1.212212,-0.08427 l -1.212212,0.06084 V 35.26734 c 0,-0.451992 -0.01744,-0.821803 -0.03876,-0.821803 -0.02132,0 -0.625703,0.44111 -1.343074,0.980243 -4.210404,3.164292 -8.435129,4.960741 -12.706863,5.403244 -1.429086,0.148038 -2.611491,0.06606 -3.900564,-0.270436 -3.231664,-0.843582 -6.365675,-2.650477 -9.756921,-5.625293 -2.001592,-1.755804 -5.010341,-4.988105 -6.914099,-7.427822 -0.370398,-0.474675 -0.700193,-0.865053 -0.732878,-0.867507 -0.03269,-0.0025 -0.697524,0.712763 -1.477419,1.589372 -3.252815,3.65619 -5.188909,5.665396 -6.903742,7.164447 -3.901091,3.410206 -7.410231,5.115755 -11.3459411,5.514471 -0.8746936,0.08861 -2.1468576,0.105531 -2.7516361,0.03659 z M 52.674295,38.362728 c 3.144491,-0.733072 6.519788,-2.553286 9.909659,-5.344034 l 0.696991,-0.573806 -0.05938,-5.083184 c -0.03266,-2.795752 -0.08562,-6.346717 -0.117692,-7.891035 L 63.045563,16.662818 62.5432,16.346616 C 61.720856,15.82901 59.513061,14.741597 58.371549,14.29194 57.082506,13.784168 55.397806,13.310641 54.00432,13.064421 c -1.332112,-0.235375 -3.676892,-0.318336 -5.033469,-0.178088 -4.068395,0.420603 -7.88036,2.186909 -11.799721,5.467499 -1.586728,1.328126 -6.098056,6.012754 -6.308813,6.551163 -0.04585,0.117136 1.115821,1.608736 2.569991,3.299895 5.314267,6.180345 10.151211,9.542022 14.870126,10.334743 1.106903,0.185946 3.174255,0.102291 4.371863,-0.176905 z"
     id="path5026"
     inkscape:connector-curvature="0" />
  <path
     style="fill:#8b31b9;fill-opacity:1;stroke-width:0.08979349"
     d="m 50.113028,33.672087 c -0.03241,-2.71064 -0.08031,-8.241816 -0.106432,-12.291502 -0.02612,-4.049686 -0.06781,-7.61561 -0.09264,-7.924275 l -0.04514,-0.56121 h 0.900436 0.900435 l 0.0053,1.234661 c 0.0029,0.679063 0.05766,6.426969 0.121668,12.773123 0.06401,6.346155 0.110163,11.547179 0.102558,11.557831 -0.0076,0.01065 -0.399344,0.04647 -0.870531,0.07959 l -0.856704,0.06022 -0.05893,-4.928436 z"
     id="path5028"
     inkscape:connector-curvature="0" />
  <path
     style="fill:#8b31b9;fill-opacity:1;stroke-width:0.08979349"
     d="m 44.576002,37.326006 -0.763245,-0.341072 -0.0185,-0.394212 c -0.04919,-1.048525 -0.212282,-22.192769 -0.171488,-22.233563 0.0258,-0.0258 0.402362,-0.180817 0.836798,-0.344476 l 0.789882,-0.297561 0.05559,0.555269 c 0.03057,0.305398 0.08132,4.212109 0.112775,8.68158 0.03145,4.469471 0.08324,9.61127 0.115081,11.426221 0.0491,2.798374 0.03878,3.299073 -0.06788,3.294398 -0.06918,-0.003 -0.469235,-0.158994 -0.889019,-0.346584 z"
     id="path5030"
     inkscape:connector-curvature="0" />
  <path
     style="fill:#8b31b9;fill-opacity:1;stroke-width:0.08979349"
     d="m 38.410665,33.190982 -0.818397,-0.715795 -0.05429,-2.000458 c -0.02986,-1.100252 -0.07665,-4.303662 -0.103981,-7.118687 l -0.04969,-5.118229 0.834698,-0.642581 0.834698,-0.642581 0.05597,1.450722 c 0.06866,1.779615 0.206659,15.503403 0.155895,15.503403 -0.02008,0 -0.404784,-0.322107 -0.854902,-0.715794 z"
     id="path5032"
     inkscape:connector-curvature="0" />
  <path
     style="fill:#8b31b9;fill-opacity:1;stroke-width:0.08979349"
     d="m 17.217357,25.918546 c 0.03198,-5.103326 0.07569,-9.296311 0.09712,-9.317745 0.02143,-0.02143 0.406038,0.207844 0.854676,0.509508 l 0.815705,0.548478 -1.61e-4,5.317948 c -8.7e-5,2.924872 -0.02691,6.565036 -0.0596,8.089255 l -0.05945,2.771306 -0.591399,0.490852 c -0.325269,0.269969 -0.709218,0.575974 -0.853221,0.680012 l -0.261822,0.18916 0.05815,-9.278774 z"
     id="path5034"
     inkscape:connector-curvature="0" />
  <path
     style="fill:#8b31b9;fill-opacity:1;stroke-width:0.08979349"
     d="m 10.452281,37.116893 c -0.0039,-1.792216 0.294218,-23.457435 0.323236,-23.490921 0.02452,-0.0283 1.665392,0.41617 1.710386,0.463299 0.04343,0.0455 -0.312732,23.606146 -0.357531,23.650945 -0.0565,0.0565 -1.385205,0.385052 -1.561653,0.386154 -0.08306,5.18e-4 -0.112813,-0.261987 -0.114438,-1.009477 z"
     id="path5036"
     inkscape:connector-curvature="0" />
  <path
     style="fill:#8b31b9;fill-opacity:1;stroke-width:0.08979349"
     d="m 5.2913515,38.080772 c -0.049386,-0.01767 -0.3286027,-0.0793 -0.6204806,-0.136951 L 4.1401837,37.838989 4.1937421,25.582275 c 0.029457,-6.741191 0.071937,-12.275091 0.094401,-12.297555 0.022463,-0.02246 0.4089012,-0.06469 0.858751,-0.09383 l 0.817909,-0.05299 v 7.092179 c 0,3.900698 -0.026827,9.523262 -0.059616,12.494586 l -0.059616,5.402407 -0.2322127,-0.0071 c -0.127717,-0.0039 -0.2726198,-0.02154 -0.3220069,-0.0392 z"
     id="path5038"
     inkscape:connector-curvature="0" />
</svg>
