<?xml version="1.0" encoding="UTF-8" standalone="no"?>
<svg
   xmlns:dc="http://purl.org/dc/elements/1.1/"
   xmlns:cc="http://creativecommons.org/ns#"
   xmlns:rdf="http://www.w3.org/1999/02/22-rdf-syntax-ns#"
   xmlns:svg="http://www.w3.org/2000/svg"
   xmlns="http://www.w3.org/2000/svg"
   xmlns:sodipodi="http://sodipodi.sourceforge.net/DTD/sodipodi-0.dtd"
   xmlns:inkscape="http://www.inkscape.org/namespaces/inkscape"
   enable-background="new 46 97 631.5 96"
   version="1.1"
   viewBox="46 97 631.5 96"
   id="svg961"
   sodipodi:docname="dna2.svg"
   inkscape:version="0.92.2 (30a58d1, 2017-08-07)">
  <metadata
     id="metadata967">
    <rdf:RDF>
      <cc:Work
         rdf:about="">
        <dc:format>image/svg+xml</dc:format>
        <dc:type
           rdf:resource="http://purl.org/dc/dcmitype/StillImage" />
      </cc:Work>
    </rdf:RDF>
  </metadata>
  <defs
     id="defs965" />
  <sodipodi:namedview
     pagecolor="#ffffff"
     bordercolor="#666666"
     borderopacity="1"
     objecttolerance="10"
     gridtolerance="10"
     guidetolerance="10"
     inkscape:pageopacity="0"
     inkscape:pageshadow="2"
     inkscape:window-width="1920"
     inkscape:window-height="996"
     id="namedview963"
     showgrid="false"
     inkscape:zoom="2.2644497"
     inkscape:cx="274.97226"
     inkscape:cy="12.671328"
     inkscape:window-x="0"
     inkscape:window-y="0"
     inkscape:window-maximized="1"
     inkscape:current-layer="svg961" />
  <style
     type="text/css"
     id="style911">.st0{fill:#1670B9;} .st1{fill:#74CDD9;}</style>
  <path
     class="st0"
     d="m625.1 119.4c-12 0-36 55-48.8 55h13.7c12.8 0 37.5-55 49.5-55h-14.4z"
     id="path913"
     style="fill:#8b31b9;fill-opacity:0.49751243" />
  <path
     class="st0"
     d="m650.8 119.4c-12 0-36 55-48.8 55h13.7c12.8 0 37.5-55 49.5-55h-14.4z"
     id="path915"
     style="fill:#8b31b9;fill-opacity:0.49751243" />
  <path
     class="st0"
     d="m532.2 119.4c-12 0-36 55-48.8 55h13.7c12.8 0 37.5-55 49.5-55h-14.4z"
     id="path917"
     style="fill:#8b31b9;fill-opacity:0.49751243" />
  <path
     class="st0"
     d="m557.8 119.4c-12 0-36 55-48.8 55h13.7c12.8 0 37.5-55 49.5-55h-14.4z"
     id="path919"
     style="fill:#8b31b9;fill-opacity:0.49751243" />
  <path
     class="st0"
     d="m437.7 119.4c-12 0-36 55-48.8 55h13.7c12.8 0 37.5-55 49.5-55h-14.4z"
     id="path921"
     style="fill:#8b31b9;fill-opacity:0.49751243" />
  <path
     class="st0"
     d="m463.3 119.4c-12 0-36 55-48.8 55h13.7c12.8 0 37.5-55 49.5-55h-14.4z"
     id="path923"
     style="fill:#8b31b9;fill-opacity:0.49751243" />
  <path
     class="st0"
     d="m341.2 119.4c-12 0-36 55-48.8 55h13.7c12.8 0 37.5-55 49.5-55h-14.4z"
     id="path925"
     style="fill:#8b31b9;fill-opacity:0.49751243" />
  <path
     class="st0"
     d="m366.9 119.4c-12 0-36 55-48.8 55h13.7c12.8 0 37.5-55 49.5-55h-14.4z"
     id="path927"
     style="fill:#8b31b9;fill-opacity:0.49751243" />
  <path
     class="st0"
     d="m248.3 119.4c-12 0-36 55-48.8 55h13.7c12.8 0 37.5-55 49.5-55h-14.4z"
     id="path929"
     style="fill:#8b31b9;fill-opacity:0.49751243" />
  <path
     class="st0"
     d="m273.9 119.4c-12 0-36 55-48.8 55h13.7c12.8 0 37.5-55 49.5-55h-14.4z"
     id="path931"
     style="fill:#8b31b9;fill-opacity:0.49751243" />
  <path
     class="st0"
     d="m153.8 119.4c-12 0-36 55-48.8 55h13.7c12.8 0 37.5-55 49.5-55h-14.4z"
     id="path933"
     style="fill:#8b31b9;fill-opacity:0.49751243" />
  <path
     class="st0"
     d="m179.4 119.4c-12 0-36 55-48.8 55h13.7c12.8 0 37.5-55 49.5-55h-14.4z"
     id="path935"
     style="fill:#8b31b9;fill-opacity:0.49751243" />
  <path
     class="st1"
     d="m165.9 119.4c12 0 36 55 48.8 55h-13.7c-12.8 0-37.5-55-49.5-55h14.4z"
     id="path937"
     style="fill:#8b31b9;fill-opacity:0.49751243" />
  <path
     class="st1"
     d="m568.4 119.4c12 0 36 55 48.8 55h-13.7c-12.8 0-37.5-55-49.5-55h14.4z"
     id="path939"
     style="fill:#8b31b9;fill-opacity:0.49751243" />
  <path
     class="st1"
     d="m542.7 119.4c12 0 36 55 48.8 55h-13.7c-12.8 0-37.5-55-49.5-55h14.4z"
     id="path941"
     style="fill:#8b31b9;fill-opacity:0.49751243" />
  <path
     class="st1"
     d="m475.4 119.4c12 0 36 55 48.8 55h-13.7c-12.8 0-37.5-55-49.5-55h14.4z"
     id="path943"
     style="fill:#8b31b9;fill-opacity:0.49751243" />
  <path
     class="st1"
     d="m449.8 119.4c12 0 36 55 48.8 55h-13.7c-12.8 0-37.5-55-49.5-55h14.4z"
     id="path945"
     style="fill:#8b31b9;fill-opacity:0.49751243" />
  <path
     class="st1"
     d="m380.9 119.4c12 0 36 55 48.8 55h-13.7c-12.8 0-37.5-55-49.5-55h14.4z"
     id="path947"
     style="fill:#8b31b9;fill-opacity:0.49751243" />
  <path
     class="st1"
     d="m355.3 119.4c12 0 36 55 48.8 55h-13.7c-12.8 0-37.5-55-49.5-55h14.4z"
     id="path949"
     style="fill:#8b31b9;fill-opacity:0.49751243" />
  <path
     class="st1"
     d="m284.5 119.4c12 0 36 55 48.8 55h-13.7c-12.8 0-37.5-55-49.5-55h14.4z"
     id="path951"
     style="fill:#8b31b9;fill-opacity:0.49751243" />
  <path
     class="st1"
     d="m258.8 119.4c12 0 36 55 48.8 55h-13.7c-12.8 0-37.5-55-49.5-55h14.4z"
     id="path953"
     style="fill:#8b31b9;fill-opacity:0.49751243" />
  <path
     class="st1"
     d="m191.5 119.4c12 0 36 55 48.8 55h-13.7c-12.8 0-37.5-55-49.5-55h14.4z"
     id="path955"
     style="fill:#8b31b9;fill-opacity:0.49751243" />
  <path
     class="st1"
     d="m97 119.4c12 0 36 55 48.8 55h-13.7c-12.8 0-37.5-55-49.5-55h14.4z"
     id="path957"
     style="fill:#8b31b9;fill-opacity:0.49751243" />
  <path
     class="st1"
     d="m71.4 119.4c12 0 36 55 48.8 55h-13.8c-12.8 0-37.5-55-49.5-55h14.5z"
     id="path959"
     style="fill:#8b31b9;fill-opacity:0.49751243" />
</svg>
