<?xml version="1.0" encoding="UTF-8" standalone="no"?>
<svg
   xmlns:dc="http://purl.org/dc/elements/1.1/"
   xmlns:cc="http://creativecommons.org/ns#"
   xmlns:rdf="http://www.w3.org/1999/02/22-rdf-syntax-ns#"
   xmlns:svg="http://www.w3.org/2000/svg"
   xmlns="http://www.w3.org/2000/svg"
   xmlns:sodipodi="http://sodipodi.sourceforge.net/DTD/sodipodi-0.dtd"
   xmlns:inkscape="http://www.inkscape.org/namespaces/inkscape"
   version="1.1"
   x="0px"
   y="0px"
   viewBox="0 0 50.869091 83.700996"
   enable-background="new 0 0 100 100"
   xml:space="preserve"
   id="svg12"
   sodipodi:docname="ethereum.svg"
   width="50.869091"
   height="83.700996"
   inkscape:version="0.92.2 (30a58d1, 2017-08-07)"><metadata
     id="metadata18"><rdf:RDF><cc:Work
         rdf:about=""><dc:format>image/svg+xml</dc:format><dc:type
           rdf:resource="http://purl.org/dc/dcmitype/StillImage" /><dc:title /></cc:Work></rdf:RDF></metadata><defs
     id="defs16" /><sodipodi:namedview
     pagecolor="#ffffff"
     bordercolor="#666666"
     borderopacity="1"
     objecttolerance="10"
     gridtolerance="10"
     guidetolerance="10"
     inkscape:pageopacity="0"
     inkscape:pageshadow="2"
     inkscape:window-width="1920"
     inkscape:window-height="996"
     id="namedview14"
     showgrid="false"
     fit-margin-top="0"
     fit-margin-left="0"
     fit-margin-right="0"
     fit-margin-bottom="0"
     inkscape:zoom="3.776"
     inkscape:cx="25.439963"
     inkscape:cy="-13.304881"
     inkscape:window-x="0"
     inkscape:window-y="0"
     inkscape:window-maximized="1"
     inkscape:current-layer="svg12" /><g
     id="g6"
     transform="translate(-24.560037,-7.867)"
     style="fill:#fbfbfb;fill-opacity:1"><path
       d="m 25.094,50.547 24.332,14.337 c 0.157,0.093 0.332,0.139 0.508,0.139 0.176,0 0.351,-0.046 0.507,-0.139 L 74.936,50.465 c 0.23,-0.135 0.396,-0.356 0.462,-0.614 0.066,-0.258 0.026,-0.532 -0.11,-0.761 L 50.904,8.353 C 50.723,8.051 50.397,7.867 50.046,7.867 c -0.351,0 -0.678,0.185 -0.858,0.486 L 24.744,49.172 c -0.137,0.229 -0.177,0.502 -0.111,0.761 0.065,0.257 0.231,0.479 0.461,0.614 z M 49.046,62.339 27.787,49.812 49.046,40.008 Z m 2,-22.325 21.2,9.715 -21.2,12.479 z m 0,-2.2 v -25.33 l 20.891,34.903 z m -2,-0.008 -20.951,9.661 20.951,-34.985 z"
       id="path2"
       inkscape:connector-curvature="0"
       style="fill:#fbfbfb;fill-opacity:1" /><path
       d="M 73.898,55.175 49.954,69.374 26.07,55.236 c -0.407,-0.241 -0.925,-0.164 -1.245,0.183 -0.32,0.347 -0.354,0.87 -0.081,1.256 l 24.394,34.471 c 0.188,0.265 0.492,0.422 0.816,0.422 0.324,0 0.629,-0.157 0.816,-0.422 L 75.224,56.614 c 0.272,-0.386 0.238,-0.909 -0.081,-1.256 -0.321,-0.349 -0.841,-0.422 -1.245,-0.183 z M 48.954,71.106 V 87.423 L 29.084,59.344 Z m 2,16.319 V 71.106 L 70.877,59.292 Z"
       id="path4"
       inkscape:connector-curvature="0"
       style="fill:#fbfbfb;fill-opacity:1" /></g></svg>