<?xml version="1.0" encoding="UTF-8" standalone="no"?>
<svg
   xmlns:dc="http://purl.org/dc/elements/1.1/"
   xmlns:cc="http://creativecommons.org/ns#"
   xmlns:rdf="http://www.w3.org/1999/02/22-rdf-syntax-ns#"
   xmlns:svg="http://www.w3.org/2000/svg"
   xmlns="http://www.w3.org/2000/svg"
   xmlns:sodipodi="http://sodipodi.sourceforge.net/DTD/sodipodi-0.dtd"
   xmlns:inkscape="http://www.inkscape.org/namespaces/inkscape"
   version="1.1"
   x="0px"
   y="0px"
   viewBox="0 0 91.609795 91.430191"
   enable-background="new 0 0 100 100"
   xml:space="preserve"
   id="svg2"
   inkscape:version="0.91 r13725"
   sodipodi:docname="vc.svg"
   width="91.609795"
   height="91.430191"><metadata
     id="metadata16"><rdf:RDF><cc:Work
         rdf:about=""><dc:format>image/svg+xml</dc:format><dc:type
           rdf:resource="http://purl.org/dc/dcmitype/StillImage" /><dc:title></dc:title></cc:Work></rdf:RDF></metadata><defs
     id="defs14" /><sodipodi:namedview
     pagecolor="#ffffff"
     bordercolor="#666666"
     borderopacity="1"
     objecttolerance="10"
     gridtolerance="10"
     guidetolerance="10"
     inkscape:pageopacity="0"
     inkscape:pageshadow="2"
     inkscape:window-width="680"
     inkscape:window-height="480"
     id="namedview12"
     showgrid="false"
     fit-margin-top="0"
     fit-margin-left="0"
     fit-margin-right="0"
     fit-margin-bottom="0"
     inkscape:zoom="1.888"
     inkscape:cx="45"
     inkscape:cy="36.754941"
     inkscape:window-x="0"
     inkscape:window-y="30"
     inkscape:window-maximized="0"
     inkscape:current-layer="svg2" /><path
     d="m 91.508007,42.266268 c 0,-0.10179 0,-0.10179 -0.101795,-0.203578 0,-0.101788 -0.101785,-0.203577 -0.203571,-0.305366 0,0 0,-0.101789 -0.101794,-0.101789 -0.101786,-0.101788 -0.203572,-0.305366 -0.305366,-0.407154 L 75.527184,25.980082 c -0.101789,-0.101788 -0.203577,-0.203578 -0.407155,-0.305366 0,0 -0.101788,0 -0.101788,0 -0.101789,-0.101788 -0.203577,-0.101788 -0.305366,-0.203577 0,0 -0.101789,0 -0.101789,0 -0.101788,0 -0.203578,-0.101789 -0.305366,-0.101789 -0.203577,0 -0.305366,0 -0.508943,0 l -17.813015,0 0,-7.63415 c 0,-0.203576 0,-0.305366 0,-0.508942 0,-0.101789 -0.101789,-0.203578 -0.101789,-0.305367 0,-0.101788 0,-0.101788 -0.101788,-0.203577 0,-0.101789 -0.101789,-0.203577 -0.203578,-0.305365 0,0 0,-0.10179 -0.101789,-0.10179 -0.101788,-0.101788 -0.203576,-0.305366 -0.305366,-0.407154 L 39.901153,0.63470686 c -0.101788,-0.1017887 -0.203576,-0.2035774 -0.407154,-0.305366 0,0 -0.101788,0 -0.101788,0 -0.101789,-0.1017887 -0.203578,-0.1017887 -0.305366,-0.2035774 0,0 -0.101789,0 -0.101789,0 -0.101788,0 -0.203578,-0.1017886 -0.305366,-0.1017886 -0.203578,0 -0.305366,0 -0.508943,0 l -35.6260306,0 C 1.1196752,-0.17960244 0,0.94007286 0,2.3651135 L 0,63.438308 c 0,1.425042 1.1196752,2.544717 2.5447164,2.544717 l 2.5447166,0 0,5.089432 c 0,5.598376 4.58049,10.178867 10.178866,10.178867 l 7.634149,0 1.52683,0 -1.52683,1.526829 -1.832196,1.832196 c -1.017886,1.017886 -1.017886,2.646503 0,3.562601 0.508944,0.508946 1.119676,0.712526 1.832196,0.712526 0.712521,0 1.323252,-0.20358 1.832196,-0.712526 l 7.634149,-7.634147 c 0.101789,-0.101789 0.203577,-0.203578 0.305366,-0.407155 0,-0.101789 0.101789,-0.101789 0.101789,-0.203577 0,-0.101789 0.101788,-0.203578 0.101788,-0.305366 0,-0.101788 0.10179,-0.203578 0.10179,-0.203578 0,-0.101788 0.101788,-0.101788 0.101788,-0.203577 0.101788,-0.305366 0.101788,-0.71252 0,-1.017886 0,-0.101789 0,-0.101789 -0.101788,-0.203578 0,-0.101788 0,-0.203577 -0.10179,-0.203577 0,-0.101789 -0.101788,-0.203577 -0.101788,-0.305366 0,-0.101789 -0.101789,-0.101789 -0.101789,-0.203578 -0.101789,-0.101788 -0.203577,-0.305366 -0.305366,-0.407154 l -7.634149,-7.634149 c -1.017887,-1.017887 -2.646506,-1.017887 -3.562603,0 -1.017887,1.017886 -1.017887,2.646505 0,3.562602 l 1.832196,1.832197 1.425041,1.526829 -1.52683,0 -7.634149,0 c -2.850082,0 -5.089433,-2.23935 -5.089433,-5.089433 l 0,-5.089432 25.447164,0 0,22.902451 c 0,1.425035 1.119675,2.544713 2.544717,2.544713 l 50.894333,0 c 1.425035,0 2.544713,-1.119678 2.544713,-2.544713 l 0,-45.804899 c 0,-0.203578 0,-0.305367 0,-0.508943 -0.101786,-0.10179 -0.101786,-0.203578 -0.101786,-0.305366 z m -15.166514,-8.34667 6.616263,6.616262 -6.616263,0 0,-6.616262 z m -35.62603,-25.4471645 6.616263,6.6162625 -6.616263,0 0,-6.6162625 z m -35.62603,52.4211585 0,-55.9837615 30.536597,0 0,12.7235815 c 0,1.425041 1.119675,2.544716 2.544717,2.544716 l 12.723582,0 0,40.715464 -45.804896,0 z m 81.430925,25.447162 -45.804895,0 0,-20.357729 12.723582,0 c 1.425041,0 2.544717,-1.119675 2.544717,-2.544717 l 0,-33.081313 15.268298,0 0,12.723582 c 0,1.425041 1.119676,2.544716 2.544717,2.544716 l 12.723581,0 0,40.715461 z"
     id="path6"
     inkscape:connector-curvature="0"
     style="fill:#ffffff;fill-opacity:1" /></svg>